<?xml version="1.0" standalone="no"?>
<!DOCTYPE svg PUBLIC "-//W3C//DTD SVG 20010904//EN"
 "http://www.w3.org/TR/2001/REC-SVG-20010904/DTD/svg10.dtd">
<svg version="1.0" xmlns="http://www.w3.org/2000/svg"
 width="574.000000pt" height="355.000000pt" viewBox="0 0 574.000000 355.000000"
 preserveAspectRatio="xMidYMid meet">

<g transform="translate(0.000000,355.000000) scale(0.100000,-0.100000)"
fill="#000000" stroke="none">
<path d="M280 3540 c157 -3 242 -7 190 -8 -66 -2 -90 -5 -80 -12 8 -5 31 -10
50 -11 19 0 29 -3 23 -6 -18 -7 -16 -33 2 -33 8 0 15 5 15 10 0 6 5 10 12 10
9 0 9 -3 1 -11 -12 -12 -6 -49 8 -49 5 0 10 9 10 20 1 11 2 30 3 43 1 15 8 23
24 25 12 2 22 -1 22 -7 0 -6 -3 -11 -8 -11 -4 0 -8 -18 -9 -41 -1 -22 -7 -47
-14 -55 -9 -11 -9 -14 1 -14 9 0 10 -3 1 -13 -16 -20 -2 -28 36 -21 25 5 39 2
53 -11 23 -21 26 -35 6 -35 -19 0 -28 -27 -11 -33 26 -11 55 5 55 29 0 13 9
28 20 34 25 13 60 4 60 -15 0 -7 15 -18 33 -23 43 -14 257 -15 257 -2 0 6 8 5
19 -2 20 -12 19 -30 -2 -27 -30 4 -67 -2 -67 -10 0 -5 21 -12 46 -16 33 -5 44
-10 40 -20 -7 -19 19 -25 84 -21 58 5 84 26 31 26 -17 0 -31 4 -31 9 0 6 18 9
40 9 37 0 39 -2 34 -24 -6 -22 -3 -24 36 -24 35 0 40 -2 31 -14 -7 -9 -23 -12
-41 -9 -23 3 -30 0 -30 -11 0 -10 10 -16 28 -17 42 -2 76 2 93 11 11 6 21 3
32 -11 25 -29 21 -37 -23 -44 -44 -7 -58 -36 -15 -33 13 1 22 4 19 7 -2 3 13
13 33 22 37 17 38 17 45 -2 4 -10 12 -19 18 -19 5 0 10 -5 10 -11 0 -7 8 -18
18 -25 16 -12 15 -13 -6 -14 -13 0 -20 -4 -17 -10 3 -6 18 -7 32 -4 19 5 24 3
21 -7 -3 -8 -15 -13 -28 -11 -15 3 -20 0 -15 -8 4 -7 20 -10 36 -8 18 3 28 0
26 -6 -2 -6 -23 -13 -48 -16 -29 -3 -40 -8 -31 -13 17 -11 85 1 94 16 5 9 15
7 35 -4 32 -19 142 -45 224 -54 45 -5 56 -10 55 -23 0 -10 -13 -19 -31 -23
l-30 -6 31 -2 c27 -1 32 -5 32 -28 0 -16 -5 -31 -11 -34 -7 -5 -6 -21 2 -50 7
-24 15 -98 17 -164 2 -66 6 -135 8 -152 3 -18 3 -33 2 -33 -7 0 -84 33 -155
67 -67 31 -79 33 -115 24 -42 -10 -92 -5 -102 10 -3 5 -12 9 -20 9 -8 0 -35 9
-60 20 -24 11 -55 25 -70 30 -14 6 -22 15 -18 21 4 7 0 9 -14 5 -11 -4 -35 0
-53 8 -33 14 -67 27 -81 31 -5 2 -21 3 -37 4 -23 1 -29 5 -28 21 1 17 8 20 47
19 l45 -1 -30 -14 -30 -15 34 6 c18 3 45 5 60 6 l26 1 -30 13 c-30 14 -29 15
11 20 30 3 44 14 44 32 0 12 -7 14 -32 10 -18 -4 -57 -10 -86 -15 -30 -5 -58
-15 -62 -23 -36 -57 -49 -62 -48 -20 1 22 5 28 16 23 11 -4 13 -1 7 7 -9 16
14 32 36 26 9 -3 27 -2 40 3 l23 9 -23 13 -24 12 32 29 c35 30 34 49 -3 49
-12 0 -26 3 -29 7 -4 3 -37 8 -75 10 -127 7 -127 7 -130 31 -2 12 -8 22 -13
22 -6 0 -7 9 -4 20 4 14 2 20 -9 20 -12 0 -14 -7 -9 -31 5 -26 3 -30 -13 -27
-20 3 -31 -29 -20 -58 5 -13 10 -12 33 3 21 14 25 14 18 3 -7 -12 -6 -13 6 -3
12 9 18 10 27 1 10 -10 36 -14 122 -19 19 -1 27 -3 18 -6 -28 -7 -21 -21 7
-15 15 2 25 0 25 -7 0 -6 -10 -11 -22 -11 -15 0 -19 -3 -11 -8 17 -11 -110
-137 -140 -138 -12 -1 -102 -5 -201 -8 -157 -6 -178 -5 -172 9 3 8 1 15 -5 15
-5 0 -2 15 7 33 10 17 19 26 21 20 3 -7 9 -13 14 -13 4 0 6 6 3 13 -2 7 9 26
25 41 l30 29 40 -20 c32 -16 43 -18 51 -8 8 10 3 16 -20 26 -30 14 -44 34 -15
23 9 -4 15 0 15 10 0 23 44 30 80 13 l30 -15 0 44 c0 38 -3 44 -21 44 -16 0
-20 -5 -16 -20 3 -11 1 -23 -4 -26 -5 -3 -9 6 -9 20 0 14 -4 26 -10 26 -5 0
-10 -8 -10 -18 0 -12 -20 -26 -65 -46 -63 -27 -175 -119 -175 -143 0 -6 -9
-27 -20 -47 l-21 -34 21 -7 c21 -7 28 -25 9 -25 -5 0 -7 -4 -4 -10 4 -6 14 -2
26 9 21 20 121 34 127 19 5 -11 32 -10 32 1 0 6 39 9 89 8 49 -1 87 1 84 6 -6
10 9 9 26 -2 9 -6 10 -11 2 -15 -22 -14 -7 -166 24 -238 5 -13 2 -18 -10 -18
-15 0 -15 -3 -5 -15 7 -9 18 -14 24 -12 5 2 19 -14 29 -34 10 -21 40 -57 65
-80 26 -23 73 -66 105 -95 32 -30 62 -54 68 -54 6 0 24 -13 42 -30 17 -16 44
-35 59 -41 16 -6 28 -15 28 -19 0 -4 19 -20 43 -36 23 -16 65 -47 93 -69 29
-22 84 -60 124 -85 40 -24 88 -56 106 -71 18 -14 58 -39 88 -54 31 -15 63 -35
73 -44 10 -10 26 -20 36 -24 9 -3 17 -11 17 -17 0 -5 8 -10 18 -10 19 0 42
-18 42 -33 0 -5 -7 -4 -15 3 -8 6 -20 10 -27 7 -8 -2 0 -10 17 -18 17 -7 38
-19 48 -28 9 -8 20 -11 24 -8 4 4 -2 14 -13 22 -17 13 -15 13 18 3 26 -8 35
-15 30 -26 -3 -10 -1 -13 6 -9 10 7 139 -55 192 -93 14 -9 52 -30 85 -46 33
-15 67 -34 76 -41 8 -7 53 -33 100 -57 46 -24 83 -49 82 -55 -2 -6 7 -11 20
-11 12 -1 36 -9 53 -18 58 -31 166 -83 419 -202 50 -23 103 -48 119 -56 16 -8
35 -14 43 -14 7 0 16 -7 19 -15 4 -8 10 -13 14 -10 11 7 70 -15 70 -26 0 -5 7
-9 16 -9 24 0 104 -39 104 -51 0 -6 6 -9 13 -6 6 2 62 -18 122 -46 114 -51
159 -70 285 -119 107 -42 171 -74 163 -81 -3 -4 9 -7 27 -7 38 0 100 -20 100
-32 0 -4 11 -8 24 -8 39 0 40 -18 2 -25 -36 -7 -43 -26 -26 -70 5 -11 11 -28
14 -37 9 -29 36 -21 51 14 12 27 14 29 15 11 0 -12 4 -24 9 -28 15 -8 23 13
13 32 -15 25 12 47 46 37 20 -5 22 -8 10 -11 -15 -4 -13 -8 9 -34 27 -29 53
-38 53 -18 0 6 -7 9 -15 5 -9 -3 -15 0 -15 8 0 22 31 28 44 10 15 -19 113 -34
102 -15 -9 15 51 6 99 -14 99 -42 124 -56 120 -67 -7 -18 15 -47 22 -30 2 6
11 12 18 12 7 0 15 5 17 11 3 9 10 9 26 0 13 -7 20 -16 18 -20 -3 -4 8 -8 24
-8 40 0 42 -3 34 -52 -6 -38 -24 -58 -24 -27 0 8 -6 17 -12 19 -8 3 -6 6 5 6
9 1 17 5 17 10 0 18 -12 41 -22 41 -5 0 -7 -4 -4 -9 3 -4 -3 -16 -13 -25 -13
-12 -21 -14 -26 -6 -10 17 -26 0 -20 -21 6 -17 3 -19 -18 -14 -20 5 -28 2 -37
-15 -14 -27 -13 -28 36 -36 40 -6 64 -19 64 -35 0 -11 -191 -12 -217 -2 -14 6
-11 9 17 14 30 5 26 7 -22 8 -48 1 -60 5 -76 26 -11 14 -23 25 -26 25 -12 0
-55 -54 -57 -70 0 -8 -4 -4 -8 9 -9 34 -29 37 -37 7 -5 -23 -12 -26 -46 -26
-43 0 -50 22 -9 28 18 3 22 9 19 32 -3 30 16 60 38 60 25 0 15 29 -12 36 -26
7 -28 18 -13 74 2 8 -3 15 -11 15 -11 0 -14 -9 -12 -33 1 -21 -2 -31 -8 -27
-19 12 -23 -25 -5 -39 17 -12 16 -13 -5 -19 -33 -8 -43 1 -36 34 7 38 -18 53
-56 33 -16 -8 -32 -12 -37 -10 -11 7 -43 -29 -34 -38 4 -4 1 -11 -6 -15 -10
-7 -9 -10 8 -16 27 -8 27 -18 -1 -30 -28 -12 -27 -29 2 -33 14 -3 20 2 20 17
0 27 14 34 51 26 29 -7 30 -8 13 -26 -9 -10 -26 -19 -36 -19 -10 0 -21 -6 -24
-13 -3 -10 -28 -12 -102 -9 -115 5 -127 11 -104 53 9 16 22 29 28 29 6 0 15
15 21 34 9 29 8 36 -6 41 -14 6 -13 9 6 24 26 22 18 36 -25 46 -35 7 -36 6
-47 -57 -5 -30 -3 -38 10 -38 8 0 15 -5 15 -11 0 -17 -24 -4 -35 19 -7 16 -15
20 -32 16 -28 -8 -53 11 -53 40 0 29 -28 44 -72 38 l-37 -4 2 -51 c1 -31 -2
-52 -10 -54 -6 -2 -10 4 -9 14 4 24 -12 33 -48 26 -26 -6 -29 -4 -23 16 3 15
-1 26 -16 36 -20 14 -23 14 -31 -6 -7 -14 -6 -23 3 -28 10 -7 10 -12 0 -30
-15 -23 -29 -28 -29 -10 0 6 -6 9 -12 6 -7 -2 -12 -10 -11 -16 2 -6 -4 -11
-13 -11 -8 0 -13 4 -10 9 3 5 0 8 -7 7 -6 0 -12 4 -12 9 0 6 6 9 13 9 23 -3
12 16 -13 22 -32 8 -25 20 17 28 26 5 30 9 18 16 -8 5 -25 10 -37 10 -13 0
-23 5 -23 10 0 6 9 10 20 10 11 0 20 5 20 10 0 6 -13 10 -28 10 -15 0 -33 5
-40 12 -9 9 -12 5 -12 -19 0 -20 6 -33 18 -38 16 -6 15 -7 -3 -18 -25 -14 -27
-11 -32 40 -3 35 0 43 17 48 11 4 18 10 15 15 -6 9 -38 2 -73 -16 -18 -9 -20
-13 -7 -17 23 -9 18 -36 -8 -46 -13 -5 -29 -16 -36 -25 -7 -9 -19 -16 -27 -16
-27 0 -23 -19 7 -34 37 -19 49 -20 49 -6 0 6 -7 10 -15 10 -8 0 -15 7 -15 15
0 23 16 18 34 -10 15 -23 15 -28 1 -47 -12 -19 -15 -19 -15 -5 0 9 -4 17 -10
17 -5 0 -10 -8 -10 -18 0 -10 -5 -23 -11 -29 -7 -7 -9 -25 -5 -48 l7 -36 58 7
c39 4 61 3 65 -5 13 -20 38 -13 31 9 -4 12 -2 20 5 20 13 0 70 -41 70 -51 0
-12 -292 -10 -306 2 -7 6 -19 7 -26 3 -21 -14 -41 -14 -88 -4 -25 6 -64 12
-86 13 -34 3 -41 0 -36 -12 5 -12 -12 -13 -122 -7 -85 4 -135 11 -150 21 -20
13 -24 13 -43 -5 -20 -18 -37 -19 -245 -19 -123 0 -241 4 -263 9 -25 6 -41 6
-43 0 -2 -6 -26 -10 -53 -10 -40 0 -49 3 -49 18 0 9 -11 30 -25 45 -25 26 -22
33 9 21 9 -3 16 -12 16 -20 0 -8 8 -14 18 -14 20 0 64 29 45 30 -14 0 -63 39
-63 50 0 3 18 6 40 7 22 1 40 -2 40 -7 0 -5 10 -18 22 -30 21 -19 21 -20 2
-20 -14 0 -16 -2 -5 -9 7 -5 22 -6 32 -4 14 4 18 1 14 -9 -5 -12 5 -17 39 -21
25 -4 54 -12 65 -19 23 -14 43 -2 21 13 -8 5 -27 12 -43 16 -15 3 -27 9 -27
13 0 4 -14 10 -30 14 -29 5 -30 7 -18 28 7 13 11 28 8 33 -2 6 -4 24 -4 40 -1
28 -4 30 -37 28 -30 -2 -38 2 -48 23 -6 14 -9 30 -6 35 8 12 52 12 57 -1 2 -6
8 -6 18 0 13 8 12 10 -2 10 -21 0 -24 26 -6 33 10 4 10 6 1 6 -7 1 -13 11 -13
22 0 19 -4 21 -39 15 -22 -3 -51 -2 -65 4 -24 9 -25 13 -19 56 6 45 5 46 -15
35 -11 -6 -33 -11 -49 -11 -24 1 -25 2 -10 11 9 5 17 16 17 24 0 20 -67 55
-107 55 -35 0 -36 -1 -17 -15 10 -8 31 -15 46 -15 20 0 26 -4 22 -15 -7 -18
-41 -20 -47 -2 -2 7 -8 8 -13 3 -5 -5 -4 -11 4 -13 6 -3 12 -10 12 -17 0 -22
31 -76 44 -76 6 0 17 5 23 11 13 13 33 4 33 -17 0 -9 -11 -14 -35 -14 -19 0
-35 -5 -35 -10 0 -18 -49 -30 -87 -22 -28 6 -39 14 -43 32 -9 37 -34 39 -28 3
3 -25 1 -29 -14 -25 -10 2 -21 15 -24 28 -3 13 -10 24 -15 24 -13 0 -11 -34 2
-47 7 -7 2 -10 -18 -10 -15 0 -22 2 -16 4 7 3 13 17 13 33 0 22 -6 30 -31 39
-45 16 -55 14 -36 -7 21 -23 22 -46 2 -62 -10 -9 -15 -9 -15 -1 0 6 -6 11 -13
11 -16 0 -67 -23 -67 -31 0 -7 72 -35 82 -31 13 4 48 -17 48 -28 0 -6 -20 -10
-45 -10 -39 0 -45 -3 -45 -20 0 -26 -36 -40 -101 -40 -48 0 -50 -1 -43 -22 9
-31 27 -41 40 -23 9 13 13 10 18 -16 3 -17 6 -42 6 -55 0 -13 5 -24 10 -24 10
0 14 19 11 51 -2 19 24 43 37 35 6 -3 10 -28 10 -55 0 -42 -4 -51 -25 -62 -20
-11 -26 -11 -33 1 -7 12 -12 12 -22 2 -14 -14 -148 -17 -148 -2 0 18 40 32 56
20 11 -10 15 -9 20 4 3 9 4 25 1 36 -3 11 -1 23 4 26 5 3 9 12 9 20 0 12 -10
15 -37 14 -42 -3 -83 8 -83 21 0 9 64 29 93 29 11 0 17 6 14 13 -4 12 -10 13
-110 16 -64 1 -72 21 -8 21 20 0 42 5 48 11 10 10 31 16 63 19 8 0 -1 9 -20
20 -19 11 -29 19 -22 20 6 0 12 11 12 25 0 26 -1 26 -62 20 -81 -8 -89 -11
-82 -30 3 -8 2 -15 -4 -15 -6 0 -12 4 -14 9 -4 13 -114 -1 -111 -14 1 -5 18
-12 38 -15 48 -7 49 -24 3 -28 -58 -5 -45 -22 17 -22 30 0 55 -4 55 -9 0 -9
-120 -31 -173 -31 -36 0 -85 39 -60 47 18 6 16 71 -1 89 -8 8 -28 14 -45 14
-16 0 -33 5 -36 10 -3 6 -16 10 -28 9 -12 0 -16 -3 -9 -6 20 -8 14 -20 -14
-26 -44 -8 -62 2 -69 39 -3 19 -10 34 -16 34 -5 0 -9 -6 -8 -12 1 -7 -1 -21
-6 -31 -10 -23 30 -68 59 -65 42 3 86 -14 86 -33 0 -11 -7 -19 -17 -19 -16 0
-16 -2 -3 -11 11 -8 1 -9 -37 -5 -51 5 -81 -7 -46 -18 34 -11 147 -23 165 -18
10 2 18 -1 18 -7 0 -6 -10 -11 -22 -12 -13 0 -17 -3 -10 -6 10 -4 10 -8 1 -19
-17 -21 35 -38 75 -24 21 7 32 7 34 0 5 -13 35 -13 49 1 6 6 26 9 44 7 30 -3
34 -7 42 -41 10 -42 5 -56 -16 -39 -7 6 -24 8 -38 5 -21 -6 -23 -5 -10 10 7 9
20 17 28 17 12 0 13 3 3 14 -6 8 -17 13 -25 10 -7 -3 -37 -6 -66 -7 -40 -2
-53 -6 -51 -16 2 -9 -3 -11 -15 -6 -10 4 -46 7 -81 7 -56 -1 -64 2 -79 24 -10
15 -22 23 -31 19 -15 -5 -42 11 -42 26 0 4 13 7 30 6 16 -1 30 -5 30 -9 0 -5
9 -8 21 -8 32 0 17 23 -21 33 -23 6 -41 5 -56 -4 -21 -11 -39 -10 -91 6 -21 7
-23 4 -24 -26 -1 -24 -3 -27 -6 -11 -5 26 -33 30 -33 4 0 -30 -33 -52 -77 -52
-23 0 -43 -5 -45 -11 -7 -21 -38 21 -38 52 0 16 -5 29 -11 29 -8 0 -10 -19 -5
-62 4 -47 11 -68 27 -80 20 -17 17 -18 -100 -18 -79 0 -120 4 -116 10 3 6 -3
10 -14 10 -10 0 -21 -6 -24 -12 -3 -10 -9 -10 -26 0 -12 7 -21 8 -21 2 0 -5
-50 -11 -117 -13 -65 -1 1175 -4 2755 -5 l2872 -2 0 1765 0 1765 -2872 -2
c-1580 -2 -2745 -5 -2588 -8z m638 -7 c-65 -2 -171 -2 -235 0 -65 1 -12 3 117
3 129 0 182 -2 118 -3z m149 1 c-3 -3 -12 -4 -19 -1 -8 3 -5 6 6 6 11 1 17 -2
13 -5z m473 -7 c60 1 62 0 20 -7 -39 -6 -34 -7 39 -8 46 -1 82 -5 79 -8 -3 -3
-89 -2 -190 3 -100 4 -159 9 -130 11 28 2 52 8 52 13 0 7 12 8 33 2 17 -4 61
-7 97 -6z m337 -8 c-3 -10 0 -20 7 -23 6 -2 -4 -5 -22 -5 -20 -1 -31 3 -27 9
4 6 -5 10 -19 10 -14 0 -26 -5 -26 -11 0 -7 -10 -9 -27 -4 -43 10 -52 25 -15
25 18 0 32 4 32 10 0 5 23 9 51 8 44 0 50 -3 46 -19z m403 11 c-42 -6 -40 -7
26 -8 55 -2 71 -5 71 -17 0 -8 -6 -15 -13 -15 -7 0 -25 -13 -41 -30 -15 -16
-34 -30 -42 -30 -10 0 -11 -3 -5 -9 5 -6 32 -11 59 -13 l50 -3 -37 -9 c-47
-10 -108 0 -108 18 0 15 -88 27 -96 14 -9 -13 -41 -9 -54 7 -11 13 -10 18 9
31 12 9 19 19 16 24 -3 4 1 11 7 14 12 6 -65 2 -167 -8 -22 -2 -28 -1 -12 1
15 2 25 9 22 14 -4 5 27 9 74 9 47 0 81 4 81 10 0 6 40 9 103 8 79 -1 92 -3
57 -8z m925 0 c-159 -3 -274 -7 -255 -8 19 -2 134 -3 255 -2 121 0 234 -4 250
-9 21 -6 6 -8 -55 -5 -60 2 -75 1 -50 -5 l35 -8 -35 -3 c-33 -2 -33 -3 -10
-10 l25 -8 -27 -1 c-16 -1 -28 4 -28 9 0 6 -14 10 -31 10 -17 0 -28 -4 -24
-10 3 -5 -1 -10 -10 -10 -10 0 -13 5 -9 12 5 8 -2 9 -26 5 -18 -4 -43 -7 -56
-7 -16 0 -24 -6 -25 -17 0 -11 -3 -13 -6 -5 -2 6 -11 12 -19 12 -28 0 -11 -34
23 -44 16 -5 23 -2 27 12 5 15 15 18 54 16 26 -1 53 3 60 9 10 8 19 7 32 -1
11 -6 26 -9 35 -6 8 4 17 -1 21 -10 3 -9 15 -16 25 -16 10 0 19 -4 19 -10 0
-13 -14 -13 -61 1 -31 10 -42 9 -55 -2 -15 -12 -14 -14 3 -20 13 -6 10 -8 -14
-8 -26 -1 -30 2 -26 19 4 16 0 20 -21 20 -14 0 -26 -4 -26 -8 0 -5 -11 -14
-24 -21 -35 -19 -22 -63 23 -72 23 -5 34 -3 38 7 3 8 14 14 24 14 10 0 19 3
19 8 0 15 139 -3 156 -20 19 -18 11 -40 -11 -32 -15 6 -33 -22 -21 -33 3 -3
24 0 46 7 35 12 42 11 58 -3 12 -11 33 -16 58 -15 l39 1 -40 5 -40 4 35 13 35
13 -37 1 c-30 1 -38 5 -37 19 0 10 3 12 6 5 2 -7 16 -13 29 -13 15 0 23 4 19
10 -4 6 -2 17 4 24 6 7 8 29 6 50 -4 27 -2 37 7 33 8 -2 12 -18 10 -40 -3 -37
-3 -37 38 -37 22 0 40 5 40 10 0 6 5 10 10 10 22 0 8 -22 -20 -32 -41 -14 -33
-32 15 -36 21 -2 44 -9 49 -16 8 -10 25 -12 61 -7 45 6 48 8 30 18 -18 11 -18
12 -2 13 9 0 17 4 17 8 0 15 -22 30 -36 25 -17 -6 -74 16 -74 29 0 5 -10 13
-22 18 -18 7 -8 9 38 8 65 -1 84 5 84 27 0 10 -12 14 -37 14 -39 -1 -243 9
-278 14 -11 1 -21 -2 -23 -8 -1 -5 13 -11 32 -13 27 -2 34 -7 33 -22 -1 -17
-35 -35 -46 -25 -2 3 1 5 7 5 7 0 12 5 12 10 0 12 -41 -7 -52 -24 -4 -6 -10
-7 -14 -3 -4 4 -2 13 4 19 18 18 14 36 -9 43 -21 7 -21 7 -1 21 11 7 37 13 58
13 22 0 59 -1 84 0 25 0 50 0 55 0 6 -1 33 2 60 6 32 4 45 3 37 -3 -11 -8 -11
-10 1 -15 7 -3 20 -2 27 3 17 10 -18 30 -53 30 -34 0 -54 25 -22 28 13 1 26
-2 29 -7 3 -4 17 -6 31 -3 15 2 25 0 25 -7 0 -6 10 -11 23 -11 18 0 19 2 7 11
-12 9 -11 10 8 6 12 -3 20 -1 16 4 -3 5 -24 9 -46 9 -23 0 -39 2 -36 5 3 3
106 7 229 9 133 2 204 0 174 -4 -27 -5 -71 -6 -97 -3 -26 3 -82 2 -125 -3
l-78 -7 49 -10 c28 -6 51 -6 55 -1 7 11 111 15 111 5 0 -8 147 11 171 23 8 4
28 2 43 -4 15 -5 56 -10 90 -10 35 0 83 -3 107 -6 41 -6 44 -8 43 -33 -1 -14
-3 -31 -3 -38 -1 -7 -17 -15 -37 -19 -32 -6 -35 -9 -32 -38 3 -27 6 -31 28
-27 14 1 27 6 30 11 6 9 46 30 57 30 4 0 1 -5 -7 -10 -9 -6 -10 -10 -3 -10 6
0 15 5 18 10 12 19 37 -11 30 -37 -5 -22 3 -28 28 -24 5 1 7 -4 4 -11 -2 -7
-16 -13 -30 -13 -15 1 -27 -2 -27 -6 0 -12 44 -23 48 -11 1 5 12 8 23 5 25 -7
56 17 37 29 -10 6 -10 10 2 18 8 5 22 9 30 9 10 0 11 -2 3 -6 -7 -2 -13 -15
-13 -28 0 -13 -5 -27 -11 -30 -5 -4 -8 -12 -6 -18 6 -18 177 -18 177 -1 0 9
-9 12 -29 8 -16 -4 -32 -1 -35 5 -4 6 0 11 8 11 9 0 16 5 16 10 0 6 6 10 14
10 9 0 12 8 8 25 -2 15 0 25 7 25 6 0 11 -6 11 -13 0 -15 50 -33 112 -41 35
-4 36 -4 20 15 -9 10 -29 19 -44 19 -30 0 -36 11 -15 27 17 14 87 24 87 12 0
-5 -18 -9 -41 -9 -26 0 -38 -4 -33 -11 3 -6 31 -10 63 -9 84 3 91 2 91 -20 0
-17 -5 -19 -32 -13 -22 4 -29 3 -24 -5 4 -7 1 -12 -8 -12 -18 0 -21 -21 -7
-35 5 -6 11 -21 13 -35 4 -32 32 -33 36 -1 4 25 24 51 40 51 5 0 15 7 22 15 7
8 24 13 42 11 22 -2 37 -15 63 -55 38 -57 40 -61 26 -61 -5 0 -13 9 -16 20 -3
11 -11 20 -16 20 -5 0 -9 -9 -9 -20 0 -11 4 -20 10 -20 5 0 16 -13 25 -30 9
-18 23 -30 35 -30 25 0 26 26 3 39 -17 9 -17 10 0 23 9 7 19 27 21 43 2 17 5
35 6 40 4 20 0 35 -10 35 -5 0 -10 -18 -10 -40 0 -22 -4 -40 -10 -40 -5 0 -10
9 -10 20 0 11 -7 23 -15 26 -15 6 -22 35 -7 33 34 -6 42 2 42 41 0 22 5 40 10
40 6 0 10 -18 10 -40 0 -28 4 -40 14 -40 15 0 36 -49 36 -85 0 -22 38 -43 50
-27 5 8 20 10 95 15 28 2 62 7 78 12 24 6 27 5 27 -17 0 -30 31 -61 57 -56 16
3 18 -3 16 -47 0 -27 -4 -65 -8 -82 -6 -28 -12 -33 -36 -33 -15 0 -31 -5 -34
-10 -4 -7 2 -9 19 -4 17 4 26 2 26 -6 0 -7 8 -10 20 -7 20 5 20 3 20 -1299 0
-999 -3 -1309 -12 -1324 -10 -15 -10 -22 0 -32 7 -7 12 -42 12 -90 0 -78 0
-78 -24 -72 -19 4 -26 1 -31 -15 -3 -12 -10 -21 -15 -21 -10 0 -19 74 -9 78 4
2 5 10 2 18 -3 8 1 14 11 14 9 0 16 5 16 10 0 6 -4 10 -10 10 -5 0 -7 13 -4
29 7 34 -19 71 -51 72 -14 0 -16 2 -5 6 17 6 40 32 40 45 0 14 -20 9 -50 -14
-23 -16 -30 -30 -30 -54 0 -36 -16 -54 -23 -27 -4 14 -5 13 -6 -4 0 -12 5 -24
12 -26 9 -4 9 -8 -2 -15 -9 -7 -10 -15 -4 -26 8 -15 11 -15 28 2 20 17 55 19
55 2 0 -5 -8 -10 -17 -12 -13 -2 -18 -13 -18 -38 0 -33 -2 -35 -35 -35 -21 0
-38 6 -42 15 -5 12 -7 12 -7 -2 -1 -22 -31 -24 -31 -2 0 9 -6 14 -12 11 -7 -2
-12 -12 -12 -21 1 -11 -4 -16 -15 -14 -9 2 -15 11 -15 21 1 9 -2 17 -7 17 -5
0 -9 -9 -9 -19 0 -23 -16 -36 -25 -21 -9 15 -45 12 -51 -5 -4 -8 -13 -15 -20
-15 -12 0 -12 -4 2 -25 9 -14 14 -32 10 -40 -7 -19 -64 -19 -90 0 -14 11 -23
12 -32 4 -7 -6 -18 -8 -24 -4 -5 3 -10 1 -10 -4 0 -6 -7 -11 -15 -11 -9 0 -12
6 -9 15 7 18 -10 20 -28 2 -8 -8 -46 -14 -105 -15 l-93 -2 0 36 c0 60 35 99
66 73 11 -9 17 -9 28 0 10 8 20 8 40 -2 14 -8 23 -17 19 -20 -3 -4 -1 -7 5 -7
7 0 12 -7 12 -15 0 -9 -8 -14 -21 -12 -12 1 -24 -3 -26 -9 -5 -15 49 -25 65
-12 6 6 12 7 12 4 0 -4 5 -4 11 -1 7 5 4 14 -8 27 -17 20 -17 20 17 -1 47 -28
50 -27 50 17 0 25 3 33 9 23 5 -8 7 -20 4 -27 -2 -7 4 -14 14 -16 31 -6 63 4
63 20 0 8 -3 12 -7 9 -3 -4 -12 1 -19 11 -13 16 -13 16 -14 -2 0 -11 -3 -16
-7 -13 -3 4 -1 17 5 30 6 12 12 33 14 46 2 18 12 27 44 36 65 19 71 27 33 39
-29 10 -34 16 -31 39 3 32 -13 36 -21 5 -4 -12 -9 -20 -12 -17 -3 3 2 23 12
45 12 29 18 34 21 21 4 -18 5 -18 23 -1 18 16 19 16 19 -9 0 -16 -8 -31 -21
-37 -11 -7 -18 -15 -14 -18 11 -11 49 -8 63 5 18 18 62 17 62 -1 0 -8 7 -22
16 -30 14 -15 14 -16 -1 -16 -27 0 -11 -25 18 -28 27 -3 27 -3 26 58 -2 58 -3
61 -24 56 -12 -3 -30 1 -41 9 -16 12 -17 17 -6 34 6 12 12 28 12 36 0 10 5 14
13 10 6 -4 4 0 -5 8 -10 8 -18 22 -18 31 0 10 -5 14 -11 10 -6 -3 -8 -20 -5
-38 3 -17 1 -38 -4 -46 -16 -24 -31 8 -24 48 4 19 2 32 -4 32 -6 0 -12 -26
-14 -57 l-3 -58 -11 45 c-7 25 -12 35 -13 23 -1 -12 -6 -25 -12 -29 -15 -9 -3
29 24 79 11 20 24 32 27 27 4 -7 12 -5 21 6 9 12 10 15 2 10 -9 -5 -13 -1 -13
11 0 26 14 45 31 41 10 -2 13 5 10 27 -4 39 -20 58 -44 51 -13 -3 -17 0 -13
10 3 9 1 12 -4 9 -6 -3 -10 -1 -10 5 0 6 -5 8 -11 4 -8 -4 -7 -9 2 -15 11 -6
11 -11 2 -20 -10 -10 -29 2 -90 52 -103 85 -145 127 -138 139 3 5 0 7 -8 4
-15 -5 -74 34 -150 98 -22 18 -48 36 -58 40 -10 4 -19 12 -19 18 0 5 -7 10
-16 10 -8 0 -28 13 -43 28 -16 15 -39 33 -52 39 -19 9 -20 12 -6 12 10 1 15 6
12 11 -4 6 -15 8 -26 5 -13 -4 -37 4 -69 25 -54 35 -88 69 -57 57 9 -3 17 -2
17 4 0 6 -8 13 -18 16 -10 2 -26 18 -36 34 -10 17 -41 42 -76 59 -32 16 -61
33 -64 38 -3 5 -8 38 -12 74 l-6 65 52 6 c29 4 88 19 132 34 64 23 88 37 124
75 24 26 44 56 44 68 0 27 -14 25 -34 -4 -13 -21 -21 -24 -53 -19 l-38 6 20
-22 20 -23 -25 -20 c-17 -14 -34 -18 -60 -14 -19 2 -27 2 -17 0 24 -7 21 -24
-4 -24 -11 0 -28 -4 -37 -9 -9 -5 -40 -12 -69 -16 l-51 -7 -12 57 c-16 77 -8
200 15 225 13 14 14 23 6 37 -10 17 -10 16 -11 -4 0 -13 -4 -23 -9 -23 -8 0
-20 128 -20 205 0 56 -15 182 -23 199 -9 16 -12 16 -24 4 -7 -7 -14 -29 -15
-48 -3 -50 12 -394 18 -402 2 -5 -3 -8 -11 -8 -9 0 -16 -4 -16 -10 0 -5 -6
-10 -12 -10 -7 0 -26 -7 -43 -16 -16 -8 -40 -12 -53 -9 -20 5 -23 11 -21 45 4
47 -13 59 -21 15 -3 -16 -11 -30 -18 -30 -7 0 -17 -6 -22 -14 -7 -12 -11 -13
-24 -2 -11 9 -13 18 -7 25 11 13 3 66 -10 66 -5 0 -9 18 -9 40 0 22 -4 40 -10
40 -14 0 -13 -77 2 -82 21 -7 19 -46 -2 -53 -23 -7 -75 2 -105 19 -11 6 -40
18 -65 26 -25 8 -46 22 -48 31 -1 8 22 43 51 76 30 34 57 67 59 74 2 7 11 10
22 6 10 -4 14 -12 10 -18 -5 -9 2 -10 27 -6 32 6 33 6 15 -8 -11 -8 -23 -15
-28 -15 -4 0 -8 -4 -8 -10 0 -5 11 -10 24 -10 14 0 28 5 31 10 3 6 17 10 31
10 13 0 24 2 24 5 0 11 -73 75 -85 75 -8 0 -18 7 -23 16 -12 22 -30 11 -80
-51 -22 -27 -58 -70 -81 -95 -22 -25 -41 -48 -41 -53 0 -4 -12 -4 -27 -1 -21
6 -25 4 -20 -9 5 -12 -4 -11 -38 8 -24 14 -48 25 -54 25 -6 0 -35 11 -65 25
-30 14 -58 25 -61 25 -4 0 -51 21 -104 46 -53 25 -136 62 -186 81 -49 20 -122
51 -161 68 -79 36 -74 28 -93 154 -12 74 -29 97 -85 112 -32 9 -53 7 -103 -6
-72 -20 -83 -33 -83 -98 0 -43 -1 -44 -53 -70 -52 -27 -53 -27 -102 -11 -27
10 -60 23 -74 31 -15 7 -31 13 -38 13 -18 0 -63 22 -59 29 2 3 -8 6 -22 7 -15
1 -52 11 -82 23 -52 20 -57 21 -92 5 -36 -16 -38 -16 -120 19 -46 19 -82 40
-81 45 2 6 -6 9 -17 7 -12 -2 -24 4 -31 16 -12 24 -17 226 -6 289 4 26 4 39
-1 32 -11 -16 -18 13 -28 113 -7 63 -6 65 17 65 22 0 22 0 3 15 -18 13 -16 14
24 15 35 0 45 4 49 20 3 11 9 20 14 20 5 0 8 6 6 13 -3 15 25 16 30 1 2 -7 -4
-19 -13 -28 -15 -16 -12 -17 50 -15 41 1 70 7 77 15 6 7 27 16 48 20 20 4 40
9 45 12 18 10 -19 20 -61 16 -30 -2 -43 0 -43 9 0 8 -4 7 -11 -3 -8 -13 -12
-12 -26 8 -11 15 -26 22 -49 22 -19 0 -34 -5 -34 -11 0 -6 7 -9 15 -5 8 3 25
1 37 -4 19 -7 13 -9 -27 -9 -39 -1 -53 -5 -63 -21 -14 -22 -47 -28 -39 -7 7
18 -12 47 -20 30 -2 -7 -9 -13 -14 -13 -6 0 -7 5 -3 12 5 8 2 9 -9 5 -10 -4
-20 0 -26 10 -8 14 -12 15 -25 4 -9 -7 -16 -21 -17 -30 0 -10 -2 -11 -6 -4 -6
16 -84 38 -92 26 -3 -5 -22 -10 -41 -10 l-35 -2 30 15 30 15 -28 -6 c-17 -3
-26 -2 -23 4 3 5 -1 12 -10 15 -25 9 -41 6 -22 -4 21 -13 12 -50 -13 -50 -11
0 -19 5 -19 10 0 6 7 10 15 10 11 0 10 6 -7 25 -12 14 -26 25 -31 25 -4 0 -1
-7 7 -16 20 -20 20 -34 1 -34 -8 0 -15 5 -15 11 0 5 -4 8 -9 5 -11 -7 -62 43
-56 54 3 5 19 11 36 15 16 4 28 12 26 18 -5 13 -12 13 -72 4 -34 -5 -38 -4
-23 7 10 7 15 16 11 19 -7 7 5 9 47 9 14 0 28 5 31 10 4 6 67 13 141 16 l135
5 10 -54 10 -54 2 48 c1 37 7 53 26 71 45 42 163 116 183 116 11 0 27 7 36 15
19 20 23 19 29 -7 4 -13 1 -26 -6 -30 -11 -7 15 -12 53 -9 8 0 5 -4 -7 -11
-36 -18 -29 -37 12 -33 19 2 38 -1 41 -6 3 -5 -1 -9 -8 -9 -8 0 -6 -5 5 -11
10 -6 17 -21 16 -37 l-1 -27 -8 25 c-4 14 -9 18 -9 10 -1 -12 -4 -11 -12 3
-13 23 -29 13 -29 -19 0 -25 14 -32 26 -13 8 13 24 -8 23 -31 0 -9 -2 -11 -5
-3 -3 7 -12 9 -20 6 -19 -7 -18 -23 2 -23 8 0 13 -4 10 -8 -3 -4 -21 -6 -40
-4 -20 2 -33 8 -30 13 10 17 -13 9 -30 -10 -17 -18 -16 -19 16 -26 18 -3 43
-11 55 -17 17 -8 26 -8 39 2 26 23 57 98 52 130 -5 30 6 41 15 18 3 -7 6 0 6
15 1 16 -3 26 -9 22 -5 -3 -11 4 -11 17 -1 17 -3 18 -6 6 -2 -10 -9 -18 -14
-18 -6 0 -9 8 -7 18 2 9 -3 23 -12 29 -13 11 -13 14 0 22 8 6 11 14 6 18 -5 4
-11 2 -13 -4 -7 -19 -20 -16 -26 6 -4 17 1 18 60 15 39 -3 71 -10 79 -19 13
-13 19 -13 51 0 19 8 52 15 72 15 20 0 42 5 49 12 9 9 12 9 12 0 0 -20 62 -24
103 -7 31 13 37 19 32 36 -5 16 -3 20 12 18 10 -2 24 0 32 5 20 13 33 -15 15
-35 -7 -8 -14 -21 -14 -28 0 -19 51 -4 70 20 12 15 18 17 27 8 6 -6 19 -9 28
-5 12 4 13 10 6 24 -7 13 -6 23 2 31 9 9 8 14 -3 21 -12 7 -7 11 18 16 33 7
58 40 43 56 -3 4 -45 9 -91 10 -68 2 -84 0 -82 -11 2 -10 -5 -12 -29 -7 -17 3
-51 6 -76 6 -26 0 -42 4 -38 10 3 5 19 7 34 4 16 -4 32 -1 35 5 13 20 -21 23
-84 7 -66 -17 -97 -20 -65 -6 15 6 6 9 -35 11 -140 7 178 15 570 15 402 -1
409 -1 135 -6z m503 3 c-10 -2 -28 -2 -40 0 -13 2 -5 4 17 4 22 1 32 -1 23 -4z
m735 0 c-13 -2 -35 -2 -50 0 -16 2 -5 4 22 4 28 0 40 -2 28 -4z m134 0 c-20
-2 -52 -2 -70 0 -17 2 0 4 38 4 39 0 53 -2 32 -4z m193 -3 c0 -13 -40 -13 -60
0 -11 7 -5 10 23 10 20 0 37 -4 37 -10z m427 4 c-3 -3 -12 -4 -19 -1 -8 3 -5
6 6 6 11 1 17 -2 13 -5z m-3524 -11 c-7 -2 -19 -2 -25 0 -7 3 -2 5 12 5 14 0
19 -2 13 -5z m3332 -3 c5 -7 -9 -9 -42 -5 -26 3 -76 2 -111 -3 -34 -5 -65 -5
-68 -1 -2 4 17 10 43 12 103 8 172 7 178 -3z m325 0 c0 -5 -9 -10 -20 -10 -11
0 -20 5 -20 10 0 6 9 10 20 10 11 0 20 -4 20 -10z m368 3 c-21 -2 -55 -2 -75
0 -21 2 -4 4 37 4 41 0 58 -2 38 -4z m-5012 -13 c16 0 22 -4 18 -15 -3 -8 1
-21 10 -30 8 -9 12 -23 9 -31 -6 -17 -23 -6 -27 19 -3 24 -27 47 -47 47 -11 0
-19 5 -19 11 0 6 7 8 16 5 9 -3 26 -6 40 -6z m224 0 c0 -5 -16 -10 -35 -10
-19 0 -35 5 -35 10 0 6 16 10 35 10 19 0 35 -4 35 -10z m155 0 c-28 -12 -37
-12 -30 0 3 6 16 10 28 9 21 0 21 -1 2 -9z m198 3 c-13 -2 -33 -2 -45 0 -13 2
-3 4 22 4 25 0 35 -2 23 -4z m2350 0 c-24 -2 -62 -2 -85 0 -24 2 -5 4 42 4 47
0 66 -2 43 -4z m1080 0 c-7 -2 -19 -2 -25 0 -7 3 -2 5 12 5 14 0 19 -2 13 -5z
m477 -2 c0 -4 -23 -6 -51 -3 -45 4 -51 2 -56 -17 -3 -12 -10 -18 -17 -14 -6 4
-3 -4 6 -19 l17 -26 -39 -10 c-21 -5 -42 -7 -47 -3 -13 10 -15 41 -2 41 7 0 3
9 -9 20 -21 20 -79 29 -67 10 8 -12 -15 -13 -34 -1 -11 7 -9 10 9 16 28 9 130
-3 130 -15 0 -5 7 -7 16 -3 8 3 13 12 10 19 -4 11 9 14 64 14 39 0 70 -4 70
-9z m-4382 -8 c-10 -2 -26 -2 -35 0 -10 3 -2 5 17 5 19 0 27 -2 18 -5z m1697
-2 c-6 -5 -28 -6 -50 -1 l-40 8 50 1 c29 1 45 -3 40 -8z m2105 -16 c0 -20 5
-25 25 -25 14 0 25 -5 25 -11 0 -7 -10 -9 -25 -5 -18 5 -25 2 -25 -9 0 -8 -6
-15 -12 -15 -9 0 -13 16 -13 45 0 29 4 45 13 45 6 0 12 -11 12 -25z m1015 15
c-4 -6 12 -10 39 -10 25 0 46 -4 46 -10 0 -5 -4 -10 -10 -10 -5 0 -10 -9 -10
-20 0 -16 -7 -20 -35 -20 -19 0 -35 5 -35 11 0 5 10 9 21 7 15 -2 23 3 25 15
1 12 -5 17 -21 17 -13 0 -31 3 -41 7 -16 6 -16 7 2 14 26 10 26 10 19 -1z m72
4 c-3 -3 -12 -4 -19 -1 -8 3 -5 6 6 6 11 1 17 -2 13 -5z m-4682 -14 c3 -6 -4
-10 -17 -10 -18 0 -20 2 -8 10 19 12 18 12 25 0z m498 -2 c15 -7 27 -19 27
-25 0 -8 14 -13 36 -13 21 0 33 -4 29 -10 -3 -5 -19 -10 -36 -10 -16 0 -29 5
-29 10 0 6 -12 10 -26 10 -22 0 -25 2 -14 15 11 13 7 15 -26 16 -22 0 -48 4
-59 9 -15 7 -9 9 26 9 25 1 57 -5 72 -11z m2040 5 c-7 -2 -21 -2 -30 0 -10 3
-4 5 12 5 17 0 24 -2 18 -5z m1102 -3 c3 -5 -3 -10 -15 -10 -12 0 -18 5 -15
10 3 6 10 10 15 10 5 0 12 -4 15 -10z m140 0 c-3 -5 -12 -7 -20 -3 -21 7 -19
13 6 13 11 0 18 -4 14 -10z m503 3 c-16 -2 -40 -2 -55 0 -16 2 -3 4 27 4 30 0
43 -2 28 -4z m159 1 c-3 -3 -12 -4 -19 -1 -8 3 -5 6 6 6 11 1 17 -2 13 -5z
m-4792 -13 c3 -5 2 -12 -3 -15 -5 -3 -9 1 -9 9 0 17 3 19 12 6z m138 2 c-7 -2
-19 -2 -25 0 -7 3 -2 5 12 5 14 0 19 -2 13 -5z m50 0 c-7 -2 -19 -2 -25 0 -7
3 -2 5 12 5 14 0 19 -2 13 -5z m105 0 c-10 -2 -28 -2 -40 0 -13 2 -5 4 17 4
22 1 32 -1 23 -4z m128 -10 c-4 -22 -23 -28 -42 -12 -12 10 -12 14 -2 20 23
15 46 10 44 -8z m581 10 c-20 -2 -52 -2 -70 0 -17 2 0 4 38 4 39 0 53 -2 32
-4z m778 -3 c-27 -7 -25 -8 18 -9 26 0 47 -6 47 -11 0 -15 -27 -23 -47 -14
-22 10 -29 11 -68 14 l-30 2 30 13 c17 8 41 14 55 13 23 0 22 -1 -5 -8z m168
3 c-7 -2 -19 -2 -25 0 -7 3 -2 5 12 5 14 0 19 -2 13 -5z m880 0 c-7 -2 -19 -2
-25 0 -7 3 -2 5 12 5 14 0 19 -2 13 -5z m1272 -24 c-4 -5 18 -9 52 -10 70 -2
64 -2 86 6 12 5 17 2 17 -9 0 -13 -14 -16 -89 -16 -66 0 -93 4 -105 15 -8 8
-23 15 -33 15 -15 0 -16 2 -3 10 9 6 18 6 24 0 15 -15 29 -12 22 5 -4 13 -2
14 15 5 11 -6 17 -15 14 -21z m395 21 c-36 -11 -50 -11 -50 0 0 6 17 10 38 9
33 -1 34 -2 12 -9z m587 4 c-3 -3 -12 -4 -19 -1 -8 3 -5 6 6 6 11 1 17 -2 13
-5z m-3807 -29 c0 -16 -6 -25 -15 -25 -28 0 -18 40 13 49 1 1 2 -10 2 -24z
m730 15 c-8 -5 -19 -10 -25 -10 -5 0 -3 5 5 10 8 5 20 10 25 10 6 0 3 -5 -5
-10z m250 0 c0 -5 -13 -10 -29 -10 -23 0 -30 -5 -33 -22 -4 -29 -53 -34 -53
-5 0 9 5 18 10 18 6 1 19 8 30 15 22 16 75 19 75 4z m2353 3 c-7 -2 -19 -2
-25 0 -7 3 -2 5 12 5 14 0 19 -2 13 -5z m64 -12 c6 -22 33 -17 33 5 0 8 7 14
15 14 8 0 15 -7 15 -15 0 -8 7 -15 15 -15 12 0 15 -14 15 -70 0 -86 -18 -93
-22 -8 -3 63 -24 92 -35 49 -6 -25 -33 -28 -33 -4 0 9 -10 27 -22 40 -19 20
-20 23 -4 23 10 0 20 -9 23 -19z m128 9 c3 -5 2 -17 -3 -26 -8 -14 -10 -12
-14 10 -5 26 5 35 17 16z m-4455 -15 c-1 -12 -62 -8 -93 5 -16 7 -7 9 36 7 31
-2 57 -7 57 -12z m1043 4 c-8 -8 -19 -8 -40 -1 -28 10 -28 10 12 11 28 1 36
-2 28 -10z m527 7 c0 -11 -19 -15 -25 -6 -3 5 1 10 9 10 9 0 16 -2 16 -4z
m2638 -18 c3 -13 -3 -18 -22 -18 -20 0 -26 5 -26 21 0 15 5 20 22 17 13 -2 24
-11 26 -20z m-3583 2 c3 -5 1 -10 -4 -10 -6 0 -11 5 -11 10 0 6 2 10 4 10 3 0
8 -4 11 -10z m230 -11 c5 -6 10 -23 11 -39 1 -26 -2 -30 -23 -30 -18 0 -24 5
-21 20 2 10 -6 25 -16 33 -24 18 -12 40 17 31 12 -3 26 -10 32 -15z m-936 -5
c3 -2 0 -9 -6 -15 -13 -13 -67 7 -58 22 6 10 53 5 64 -7z m479 9 c-10 -2 -28
-2 -40 0 -13 2 -5 4 17 4 22 1 32 -1 23 -4z m369 1 c-3 -3 -12 -4 -19 -1 -8 3
-5 6 6 6 11 1 17 -2 13 -5z m830 0 c-3 -3 -12 -4 -19 -1 -8 3 -5 6 6 6 11 1
17 -2 13 -5z m-1932 -34 c1 -11 -2 -20 -7 -20 -4 0 -7 11 -6 25 3 28 11 24 13
-5z m4035 26 c0 -11 -19 -15 -25 -6 -3 5 1 10 9 10 9 0 16 -2 16 -4z m427 -2
c-3 -3 -12 -4 -19 -1 -8 3 -5 6 6 6 11 1 17 -2 13 -5z m599 -7 c4 -3 4 -14 0
-23 -6 -16 -8 -15 -21 2 -8 10 -15 22 -15 26 0 8 27 4 36 -5z m-4006 -6 c0
-12 -39 -21 -45 -11 -3 5 1 11 7 13 21 9 38 8 38 -2z m2050 -1 c0 -5 -7 -10
-16 -10 -8 0 -12 5 -9 10 3 6 10 10 16 10 5 0 9 -4 9 -10z m1730 -25 c0 -13
-3 -31 -7 -40 -5 -14 -8 -12 -18 11 -8 19 -9 35 -3 47 12 23 28 13 28 -18z
m-1792 18 c-10 -2 -18 -10 -18 -18 0 -17 -37 -8 -44 11 -4 11 4 14 37 13 23
-1 34 -3 25 -6z m939 1 c-3 -3 -12 -4 -19 -1 -8 3 -5 6 6 6 11 1 17 -2 13 -5z
m264 -37 c-6 -6 -25 -12 -43 -13 -67 -7 -68 -8 -62 -26 3 -12 0 -18 -10 -18
-12 0 -16 10 -16 36 0 29 3 35 16 30 8 -3 13 -2 10 3 -9 14 31 20 44 7 8 -8
14 -6 22 7 9 18 11 18 29 1 13 -12 16 -21 10 -27z m764 22 c-4 -5 1 -12 9 -15
12 -5 13 -11 6 -24 -16 -30 -12 -87 6 -94 9 -3 19 -4 24 -1 10 6 20 -46 12
-60 -3 -5 -9 1 -12 15 -5 22 -11 25 -55 26 -74 1 -85 3 -85 15 0 6 7 9 15 5
12 -4 15 4 15 41 0 25 3 43 7 39 4 -4 7 -21 8 -39 0 -25 4 -32 20 -32 21 0 29
30 13 52 -5 6 -4 14 2 18 8 5 9 20 5 42 -4 24 -3 33 5 28 5 -3 8 -11 5 -16z
m-3491 -4 c-6 -16 -24 -21 -24 -7 0 11 11 22 21 22 5 0 6 -7 3 -15z m2908 3
c-9 -9 -15 -9 -24 0 -9 9 -7 12 12 12 19 0 21 -3 12 -12z m-2577 -38 c-7 -11
-38 -13 -48 -3 -4 3 1 14 10 23 15 14 20 14 31 3 7 -7 10 -17 7 -23z m77 24
c-33 -14 -52 -12 -52 7 0 5 19 9 43 8 l42 -1 -33 -14z m1923 6 c3 -5 -1 -10
-9 -10 -9 0 -16 5 -16 10 0 6 4 10 9 10 6 0 13 -4 16 -10z m488 3 c-7 -2 -19
-2 -25 0 -7 3 -2 5 12 5 14 0 19 -2 13 -5z m-2890 -19 c-4 -12 0 -14 23 -8 21
5 26 4 19 -5 -6 -6 -31 -13 -55 -16 l-44 -6 25 25 c28 28 41 32 32 10z m146
-29 c0 -5 -4 -3 -9 5 -8 13 -11 11 -16 -7 -6 -21 -6 -21 -26 -3 -23 21 -15 44
13 35 12 -4 19 -2 20 7 0 14 17 -20 18 -37z m2986 26 c13 -7 -36 -19 -53 -13
-9 3 -10 8 -2 18 10 12 28 10 55 -5z m491 -55 c-8 -33 -46 -29 -45 4 1 18 3
20 6 7 8 -30 28 -13 32 29 4 34 5 36 9 10 2 -15 1 -38 -2 -50z m-4826 44 c12
-8 9 -10 -12 -10 -15 0 -30 5 -33 10 -8 13 25 13 45 0z m807 -10 c-2 -8 -9
-14 -15 -12 -7 1 -12 -5 -12 -13 0 -11 -11 -15 -39 -15 -29 0 -48 -7 -67 -25
-22 -21 -34 -24 -58 -19 -17 3 -36 11 -43 16 -6 5 -40 6 -75 3 -51 -5 -59 -4
-44 6 10 6 44 13 76 14 72 3 127 21 140 45 9 16 21 19 75 17 52 -2 65 -5 62
-17z m1093 10 c0 -5 -2 -10 -4 -10 -3 0 -8 5 -11 10 -3 6 -1 10 4 10 6 0 11
-4 11 -10z m-464 -15 c-10 -8 -23 -12 -28 -9 -14 9 2 24 25 24 21 -1 21 -1 3
-15z m891 9 c-3 -3 -12 -4 -19 -1 -8 3 -5 6 6 6 11 1 17 -2 13 -5z m-1824 -11
c-7 -2 -21 -2 -30 0 -10 3 -4 5 12 5 17 0 24 -2 18 -5z m117 -2 c0 -6 -17 -7
-37 -4 -52 8 -54 13 -5 13 23 0 42 -4 42 -9z m320 -1 c0 -5 -7 -10 -16 -10 -8
0 -12 -4 -9 -10 3 -5 2 -10 -3 -10 -5 0 -7 -11 -4 -25 5 -29 22 -34 22 -6 0
18 25 36 43 32 5 -1 11 8 14 19 6 24 23 27 23 4 0 -8 14 -29 31 -46 25 -26 33
-29 52 -20 12 6 16 11 10 11 -7 1 -13 8 -13 16 0 13 -4 14 -21 5 -11 -7 -23
-9 -25 -7 -3 3 9 12 27 21 24 12 35 13 45 5 19 -16 17 -32 -2 -25 -13 5 -14 4
-6 -7 9 -11 2 -21 -35 -48 -71 -52 -77 -55 -64 -31 14 26 14 35 1 27 -6 -4
-10 6 -10 22 0 21 3 24 10 13 14 -22 23 -5 10 19 -8 17 -17 20 -38 15 -42 -10
-43 -12 -39 -71 l3 -55 -51 6 c-27 3 -72 6 -100 7 l-50 2 50 7 50 7 -44 1
c-44 2 -51 16 -8 17 15 0 23 7 25 22 2 12 10 27 18 34 12 10 17 8 29 -7 12
-16 16 -17 24 -5 6 9 6 22 1 32 -5 9 -6 19 -3 23 3 3 -1 6 -10 6 -9 0 -17 5
-17 10 0 6 18 10 40 10 22 0 40 -4 40 -10z m30 0 c0 -5 -4 -10 -10 -10 -5 0
-10 5 -10 10 0 6 5 10 10 10 6 0 10 -4 10 -10z m-750 -10 c0 -5 -4 -10 -10
-10 -5 0 -10 5 -10 10 0 6 5 10 10 10 6 0 10 -4 10 -10z m2636 -17 c-10 -10
-19 5 -10 18 6 11 8 11 12 0 2 -7 1 -15 -2 -18z m1765 4 c-10 -9 -11 -8 -5 6
3 10 9 15 12 12 3 -3 0 -11 -7 -18z m49 1 c0 -19 -2 -20 -10 -8 -13 19 -13 30
0 30 6 0 10 -10 10 -22z m-4374 -15 c-3 -24 -8 -28 -40 -31 -24 -1 -35 1 -31
8 3 5 15 10 25 10 10 0 22 9 25 20 9 30 24 24 21 -7z m130 10 c-10 -11 -77
-13 -71 -3 4 6 22 10 42 10 20 0 33 -3 29 -7z m754 0 c-8 -3 -20 -10 -26 -14
-7 -5 -11 -3 -11 6 0 10 10 15 26 14 16 0 20 -3 11 -6z m3357 -40 c-3 -10 -5
-2 -5 17 0 19 2 27 5 18 2 -10 2 -26 0 -35z m-4330 31 c-3 -3 -12 -4 -19 -1
-8 3 -5 6 6 6 11 1 17 -2 13 -5z m1100 -30 c-3 -3 -12 -4 -19 -1 -8 3 -5 6 6
6 11 1 17 -2 13 -5z m-733 -13 c10 -16 83 -23 105 -11 25 13 29 -3 7 -25 -9
-9 -17 -10 -24 -3 -7 7 -16 6 -31 -1 -17 -10 -20 -9 -15 4 4 8 2 15 -4 15 -5
0 -24 3 -42 7 -30 6 -33 4 -28 -15 5 -18 2 -22 -16 -22 -12 0 -27 -5 -34 -12
-6 -6 -15 -8 -19 -4 -4 4 6 18 22 31 17 14 35 29 40 34 13 13 32 14 39 2z
m-324 -22 c0 -6 -4 -7 -10 -4 -5 3 -10 11 -10 16 0 6 5 7 10 4 6 -3 10 -11 10
-16z m550 17 c0 -3 -4 -8 -10 -11 -5 -3 -10 -1 -10 4 0 6 5 11 10 11 6 0 10
-2 10 -4z m-583 -12 c-3 -3 -12 -4 -19 -1 -8 3 -5 6 6 6 11 1 17 -2 13 -5z
m170 -20 c-3 -3 -12 -4 -19 -1 -8 3 -5 6 6 6 11 1 17 -2 13 -5z m208 -4 c3 -5
-1 -10 -9 -10 -9 0 -16 5 -16 10 0 6 4 10 9 10 6 0 13 -4 16 -10z m115 -20
c-8 -5 -33 -9 -55 -8 l-40 1 45 7 c25 4 50 8 55 8 6 1 3 -3 -5 -8z m-105 -19
c-1 -12 -11 -15 -42 -13 -23 2 -44 -1 -48 -7 -3 -6 -12 -11 -18 -11 -7 1 -1 9
12 20 12 11 27 17 32 14 5 -3 9 -1 9 5 0 5 13 9 29 9 20 -1 28 -6 26 -17z
m220 -6 c6 -2 -18 -4 -52 -4 -35 -1 -63 3 -63 8 0 7 90 4 115 -4z m86 -195
c16 0 10 -18 -8 -23 -11 -3 -7 -5 10 -6 15 0 27 -4 27 -9 0 -4 -20 -6 -44 -4
-42 4 -43 5 -32 28 6 13 17 22 24 19 8 -3 18 -5 23 -5z m-71 -20 c-14 -4 -34
-8 -45 -8 l-20 -1 20 9 c11 5 31 8 45 8 l25 0 -25 -8z m213 -17 c-7 -2 -19 -2
-25 0 -7 3 -2 5 12 5 14 0 19 -2 13 -5z m-793 -207 c0 -3 -4 -8 -10 -11 -5 -3
-10 -1 -10 4 0 6 5 11 10 11 6 0 10 -2 10 -4z m5 -56 c-3 -5 -12 -10 -18 -10
-7 0 -6 4 3 10 19 12 23 12 15 0z m-95 -25 c0 -8 -4 -15 -10 -15 -5 0 -10 7
-10 15 0 8 5 15 10 15 6 0 10 -7 10 -15z m11 -62 c20 -3 26 -9 22 -23 -3 -10
-12 -21 -22 -23 -14 -4 -14 -5 2 -12 20 -9 50 12 43 31 -5 14 42 26 50 13 3
-5 15 -9 28 -9 38 0 83 -28 90 -56 6 -21 9 -24 21 -14 8 7 12 16 9 21 -8 14
13 11 28 -4 7 -7 22 -16 33 -19 85 -26 178 -70 113 -54 -16 3 -28 2 -28 -3 0
-8 -202 -78 -275 -96 -16 -3 -33 -12 -37 -18 -10 -17 -87 38 -84 60 2 10 1 12
-1 6 -7 -20 -16 -15 -46 25 -16 20 -26 45 -23 54 2 10 0 18 -5 18 -14 0 -11
98 4 103 16 6 45 6 78 0z m-101 -29 c0 -8 -5 -12 -10 -9 -6 4 -8 11 -5 16 9
14 15 11 15 -7z m-3 -71 c-3 -10 -5 -2 -5 17 0 19 2 27 5 18 2 -10 2 -26 0
-35z m790 -93 l118 -51 3 -47 c2 -26 5 -62 7 -79 3 -26 0 -33 -13 -34 -16 -1
-15 -2 1 -6 9 -2 17 -13 17 -22 0 -13 -15 -23 -56 -36 -54 -17 -78 -42 -67
-71 8 -22 -17 -25 -54 -8 -21 10 -40 20 -43 23 -3 4 -57 33 -120 65 -63 32
-117 62 -120 65 -3 4 -26 18 -53 31 -27 15 -45 30 -42 38 5 15 -7 16 -21 2 -7
-7 -19 -2 -38 15 -15 14 -31 23 -36 20 -5 -3 -11 -1 -14 4 -9 14 96 42 134 36
24 -4 29 -3 15 3 -17 8 -16 10 10 16 17 4 44 13 60 20 84 36 155 61 187 65 4
1 60 -22 125 -49z m1133 -69 c0 -5 10 -11 22 -15 20 -5 21 -7 8 -20 -8 -8 -35
-18 -59 -22 -39 -6 -44 -5 -38 9 4 11 1 17 -9 17 -8 0 -12 -4 -9 -10 3 -5 -3
-10 -14 -10 -33 0 -33 17 2 30 17 6 41 16 52 20 27 12 45 12 45 1z m-923 -27
c-3 -3 -12 -4 -19 -1 -8 3 -5 6 6 6 11 1 17 -2 13 -5z m43 -14 c0 -5 18 -13
40 -16 46 -7 70 -28 44 -38 -9 -3 -20 -4 -24 -1 -5 3 -11 1 -15 -5 -5 -8 -90
-50 -101 -50 -2 0 -4 21 -4 46 0 33 5 51 18 60 20 16 42 18 42 4z m310 -61
c47 -17 95 -33 108 -36 12 -3 22 -9 22 -14 0 -5 7 -9 15 -9 8 0 33 -7 55 -16
l39 -16 -42 -22 c-23 -12 -51 -27 -62 -33 -11 -7 -63 -33 -115 -58 -118 -56
-129 -63 -123 -85 3 -10 0 -20 -5 -24 -5 -3 -65 22 -133 55 -68 34 -148 73
-177 87 l-52 25 27 19 c16 10 38 18 50 18 12 0 23 3 25 8 5 12 247 126 278
131 3 1 43 -13 90 -30z m390 -79 c-13 -8 -12 -10 3 -10 13 0 17 -8 17 -34 0
-19 -4 -38 -10 -41 -5 -3 -10 -11 -10 -16 0 -6 4 -8 9 -5 5 3 11 -26 13 -64 4
-83 23 -113 93 -152 52 -28 151 -44 199 -32 16 4 36 20 47 38 10 17 22 30 26
28 4 -2 9 1 11 7 2 6 -5 11 -16 11 -16 0 -23 11 -32 48 -7 26 -13 62 -14 80 0
17 -4 32 -8 32 -5 0 -8 8 -7 18 0 10 3 12 6 4 2 -6 9 -10 13 -7 5 3 26 -2 47
-11 21 -9 47 -20 58 -25 174 -68 263 -119 209 -119 -8 0 -22 -9 -31 -20 -10
-11 -23 -20 -30 -20 -7 0 -13 -4 -13 -10 0 -5 -5 -10 -10 -10 -6 0 -29 -13
-51 -30 -23 -16 -45 -27 -50 -25 -4 3 -10 1 -14 -4 -3 -6 -12 -8 -20 -4 -11 4
-13 1 -9 -11 4 -11 -2 -19 -20 -26 -24 -9 -26 -15 -26 -63 0 -61 -21 -45 185
-142 55 -26 106 -50 114 -54 25 -13 23 -28 -5 -35 -19 -5 -30 -2 -42 12 -10
10 -33 24 -52 31 -19 6 -59 25 -89 41 -30 17 -59 30 -65 30 -5 0 -55 22 -110
49 -56 27 -130 61 -166 77 -36 15 -82 38 -102 51 -21 13 -71 36 -112 52 -40
17 -102 45 -138 64 -36 19 -81 40 -101 46 -20 7 -37 19 -37 26 0 8 -6 12 -14
9 -18 -7 -59 14 -51 25 3 5 76 44 162 86 87 42 178 87 203 100 42 22 73 25 40
5z m815 -317 c194 -86 215 -96 215 -105 0 -5 5 -6 10 -3 6 3 10 -1 10 -9 0 -9
-4 -16 -10 -16 -5 0 -10 -6 -10 -14 0 -18 -70 -80 -117 -104 -74 -37 -101 -36
-189 9 -43 22 -106 52 -139 65 -105 44 -134 59 -135 66 0 4 7 5 15 2 9 -4 15
0 15 8 0 8 17 23 38 34 20 10 39 22 42 25 20 25 123 86 142 84 13 -2 64 -21
113 -42z m290 -74 c-8 -12 -35 -12 -35 0 0 11 22 20 33 14 4 -2 5 -9 2 -14z
m144 -21 c118 -44 182 -77 154 -77 -12 -1 -25 -5 -28 -11 -3 -5 -16 -10 -28
-10 -31 0 -67 -27 -67 -51 0 -24 -4 -24 -40 3 -23 17 -28 27 -24 47 4 20 3 22
-5 11 -8 -12 -11 -10 -19 10 -5 14 -17 42 -26 64 -9 21 -16 40 -16 42 0 8 16
3 99 -28z m403 -101 l2 -72 5 75 6 75 8 -49 c4 -27 7 -66 7 -88 0 -31 -3 -38
-17 -36 -10 2 -19 -4 -19 -12 -1 -8 -2 -21 -3 -28 -1 -8 -11 -11 -28 -8 -14 3
-46 8 -70 12 -24 3 -46 10 -49 15 -3 5 -18 9 -34 9 -36 0 -47 16 -20 30 11 6
20 15 20 20 0 15 -27 12 -62 -6 -22 -11 -33 -13 -41 -5 -8 8 -7 11 3 11 11 1
10 5 -4 15 -20 15 -20 15 0 15 11 0 35 11 54 24 19 13 53 27 75 30 22 4 65 18
95 30 30 13 58 21 63 19 4 -2 8 -37 9 -76z m-155 47 c-3 -3 -12 -4 -19 -1 -8
3 -5 6 6 6 11 1 17 -2 13 -5z m-214 -159 c40 -20 92 -47 117 -61 25 -14 75
-42 111 -61 37 -20 79 -46 94 -59 15 -13 32 -25 38 -27 8 -2 13 -48 16 -136 3
-146 9 -158 60 -128 15 9 39 14 54 13 15 -2 27 1 27 6 0 6 -16 8 -35 6 l-35
-4 0 47 c0 25 -3 74 -7 109 l-6 62 24 -13 c13 -8 26 -17 29 -21 3 -4 18 -12
33 -17 28 -11 57 -61 57 -100 0 -14 -5 -18 -20 -14 -11 3 -20 0 -20 -6 0 -6 7
-11 16 -11 25 0 6 -39 -39 -82 -64 -59 -209 -106 -293 -94 -50 7 -215 81 -227
102 -4 8 -15 14 -22 14 -8 0 -15 5 -15 11 0 5 -10 9 -22 7 -14 -2 -22 2 -21 9
2 7 -3 10 -10 8 -18 -7 -103 40 -99 55 2 8 -3 10 -15 6 -20 -8 -103 31 -103
48 0 7 -14 13 -30 14 -27 2 -140 49 -140 58 0 2 21 10 48 18 90 27 151 63 274
159 22 17 78 94 78 107 0 15 5 13 83 -25z m147 -20 c23 -9 28 -14 15 -14 -11
0 -31 6 -45 14 -31 18 -16 18 30 0z m85 -25 c3 -5 30 -10 60 -10 58 0 56 2 70
-69 l7 -34 -43 27 c-24 15 -65 36 -91 48 -38 16 -45 23 -35 34 14 16 24 17 32
4z m-1027 -36 c103 -46 122 -57 122 -68 0 -17 -154 -40 -222 -33 -58 6 -173
45 -163 55 9 10 176 59 203 61 13 0 40 -6 60 -15z m1469 -366 c21 -12 75 -50
121 -85 46 -35 87 -63 92 -63 11 0 80 -65 80 -76 1 -16 48 -45 55 -34 4 6 12
4 21 -5 9 -8 12 -20 8 -27 -5 -7 -2 -9 9 -5 18 7 42 -17 32 -32 -3 -7 0 -8 9
-5 16 6 66 -28 124 -83 19 -18 38 -33 42 -33 5 0 11 -9 15 -19 3 -11 14 -22
23 -24 12 -3 11 -5 -5 -6 -13 0 -23 3 -23 8 0 5 -15 4 -35 -2 -29 -9 -38 -7
-54 7 -11 10 -21 13 -25 7 -8 -12 -74 -3 -103 15 -26 16 -37 18 -28 4 3 -5 3
-10 -2 -10 -13 0 -35 17 -35 26 0 5 -3 8 -7 8 -42 -8 -73 -12 -63 -7 6 2 10 9
7 13 -3 5 -17 4 -30 -2 -27 -12 -57 -7 -235 38 -173 44 -225 59 -228 67 -2 4
-14 7 -26 7 -26 0 -156 39 -156 47 0 3 14 3 30 0 17 -4 30 -2 30 3 0 6 20 10
44 10 30 0 69 12 123 37 43 20 87 36 98 35 14 -2 16 0 8 6 -10 6 -5 17 17 43
16 18 29 43 30 54 0 11 4 26 9 34 6 10 4 25 -5 43 -17 34 -16 34 33 6z m699
-458 c8 0 14 -7 14 -15 0 -8 -4 -15 -10 -15 -5 0 -10 5 -10 10 0 6 -7 10 -15
10 -16 0 -20 12 -8 24 4 4 9 2 11 -3 2 -6 10 -11 18 -11z m-3281 -180 c4 -6
-9 -10 -32 -9 -38 1 -38 1 -8 9 17 4 31 8 32 9 1 0 5 -3 8 -9z m2288 -46 c15
-4 27 -11 27 -16 0 -6 -8 -7 -17 -3 -10 4 -30 10 -46 13 -15 2 -30 9 -34 15
-4 6 2 8 18 3 13 -3 36 -9 52 -12z m-117 -17 c-1 -27 -27 -31 -37 -7 -9 20 -2
30 21 30 13 0 17 -7 16 -23z m223 -23 c12 -12 -8 -10 -34 2 l-30 14 30 -6 c16
-3 32 -8 34 -10z m904 -12 c-3 -12 -9 -22 -14 -22 -12 0 -11 7 3 30 15 24 19
21 11 -8z m-3220 -2 c-3 -11 -7 -20 -9 -20 -2 0 -4 9 -4 20 0 11 4 20 9 20 5
0 7 -9 4 -20z m2244 14 c-3 -3 -12 -4 -19 -1 -8 3 -5 6 6 6 11 1 17 -2 13 -5z
m-2287 -19 c0 -11 -11 -15 -40 -15 -29 0 -40 4 -40 15 0 11 11 15 40 15 29 0
40 -4 40 -15z m2400 -5 c0 -5 -7 -10 -16 -10 -8 0 -12 5 -9 10 3 6 10 10 16
10 5 0 9 -4 9 -10z m827 -12 c-3 -8 -6 -5 -6 6 -1 11 2 17 5 13 3 -3 4 -12 1
-19z m-3497 -3 c0 -8 -4 -15 -10 -15 -5 0 -10 7 -10 15 0 8 5 15 10 15 6 0 10
-7 10 -15z m215 -17 c19 2 36 -2 40 -8 3 -6 -4 -10 -17 -11 -23 -1 -23 -1 2
-9 24 -8 23 -8 -8 -9 -25 -1 -35 -7 -42 -26 -12 -32 -25 -32 -47 3 -24 37 -32
42 -73 42 -56 0 -75 20 -20 20 25 0 53 7 64 15 16 12 22 12 43 -2 14 -10 40
-16 58 -15z m3393 11 c-2 -6 -8 -10 -13 -10 -5 0 -11 4 -13 10 -2 6 4 11 13
11 9 0 15 -5 13 -11z m-4068 -9 c0 -5 -21 -10 -46 -10 -27 0 -43 4 -39 10 3 6
24 10 46 10 21 0 39 -4 39 -10z m4230 0 c0 -5 -9 -14 -20 -20 -17 -9 -20 -8
-20 10 0 13 7 20 20 20 11 0 20 -4 20 -10z m-3850 -34 c0 -3 -4 -8 -10 -11 -5
-3 -10 -1 -10 4 0 6 5 11 10 11 6 0 10 -2 10 -4z m80 0 c0 -3 -4 -8 -10 -11
-5 -3 -10 -1 -10 4 0 6 5 11 10 11 6 0 10 -2 10 -4z m304 -20 c-3 -9 -10 -13
-15 -10 -5 3 -3 11 4 19 15 16 19 13 11 -9z m3121 4 c3 -5 -5 -12 -19 -16 -19
-4 -26 -14 -31 -45 -4 -21 -11 -39 -17 -39 -13 0 -1 73 13 78 5 2 9 10 9 18 0
16 36 19 45 4z m-1735 -14 c0 -2 -7 -6 -15 -10 -8 -3 -15 -1 -15 4 0 6 7 10
15 10 8 0 15 -2 15 -4z m-2197 -23 c-7 -2 -19 -2 -25 0 -7 3 -2 5 12 5 14 0
19 -2 13 -5z m399 -21 c-7 -2 -12 -10 -12 -18 0 -18 -17 -18 -27 0 -4 8 -19
16 -33 19 -20 3 -18 5 10 6 19 1 42 6 50 11 10 6 16 6 19 -2 2 -7 -1 -14 -7
-16z m-459 5 c16 -11 16 -14 2 -32 -16 -20 -16 -20 -12 0 2 12 -5 25 -18 32
-15 9 -16 12 -4 13 8 0 23 -6 32 -13z m953 -13 c-19 -18 -36 -18 -36 1 0 9 6
12 15 9 8 -4 15 -1 15 6 0 6 5 8 10 5 6 -4 5 -12 -4 -21z m-1119 4 c0 -9 -14
-12 -46 -8 l-46 4 45 7 c25 3 45 7 46 7 0 1 1 -4 1 -10z m873 2 c0 -5 -8 -10
-17 -10 -15 0 -16 2 -3 10 19 12 20 12 20 0z m1550 1 c0 -10 -42 -23 -49 -15
-7 6 20 24 37 24 6 0 12 -4 12 -9z m-1393 -7 c-3 -3 -12 -4 -19 -1 -8 3 -5 6
6 6 11 1 17 -2 13 -5z m1763 -21 c0 -22 -2 -25 -10 -13 -13 20 -13 40 0 40 6
0 10 -12 10 -27z m350 12 c10 -13 9 -15 -9 -15 -12 0 -21 6 -21 15 0 8 4 15 9
15 5 0 14 -7 21 -15z m-491 -2 c-4 -24 4 -33 25 -33 14 0 28 -5 31 -11 12 -18
-1 -20 -32 -4 -29 15 -32 14 -62 -12 -38 -33 -39 -43 -6 -43 14 0 25 -4 25
-10 0 -5 7 -7 15 -4 10 4 15 0 15 -11 0 -13 -6 -15 -32 -10 -18 4 -38 14 -45
22 -6 8 -18 13 -25 10 -7 -2 -21 0 -30 5 -22 11 -24 58 -3 58 28 0 30 1 37 21
10 25 28 25 28 -1 0 -29 27 -25 34 5 6 22 28 38 25 18z m1191 -3 c0 -5 -4 -10
-10 -10 -5 0 -10 5 -10 10 0 6 5 10 10 10 6 0 10 -4 10 -10z m35 -10 c3 -5 -1
-10 -9 -10 -9 0 -16 5 -16 10 0 6 4 10 9 10 6 0 13 -4 16 -10z m-3635 -10 c-1
-14 -18 -29 -43 -35 -29 -8 -32 -4 -17 25 8 16 60 25 60 10z m2120 6 c0 -11
-19 -15 -25 -6 -3 5 1 10 9 10 9 0 16 -2 16 -4z m-1713 -68 c-1 -30 -5 -38
-19 -38 -20 0 -24 15 -8 25 6 4 8 11 4 16 -3 6 -3 22 1 37 9 37 24 10 22 -40z
m250 40 c-3 -8 -6 -5 -6 6 -1 11 2 17 5 13 3 -3 4 -12 1 -19z m-1243 -8 c13 0
26 5 28 11 3 9 10 8 28 -1 l24 -13 -22 -17 c-12 -10 -22 -30 -22 -44 0 -14 -4
-26 -10 -26 -5 0 -10 14 -10 30 0 17 4 30 9 30 5 0 12 7 15 16 4 11 1 14 -12
11 -9 -3 -34 -8 -54 -12 -34 -5 -38 -4 -38 15 0 17 3 19 19 10 11 -5 31 -10
45 -10z m1136 5 c0 -8 -7 -15 -16 -15 -14 0 -14 3 -4 15 7 8 14 15 16 15 2 0
4 -7 4 -15z m2440 5 c0 -5 -4 -10 -10 -10 -5 0 -10 5 -10 10 0 6 5 10 10 10 6
0 10 -4 10 -10z m510 0 c0 -5 -4 -10 -10 -10 -5 0 -10 5 -10 10 0 6 5 10 10
10 6 0 10 -4 10 -10z m-3975 -10 c3 -5 2 -10 -4 -10 -5 0 -13 5 -16 10 -3 6
-2 10 4 10 5 0 13 -4 16 -10z m512 -6 c3 -8 -4 -25 -16 -38 -11 -12 -21 -29
-21 -37 0 -11 -2 -12 -9 0 -6 10 -13 11 -29 2 -11 -6 -29 -11 -39 -10 -11 0
-13 2 -5 6 7 3 17 16 22 29 5 13 18 24 28 24 9 0 24 9 32 20 17 24 29 25 37 4z
m270 -6 c-3 -8 -6 -5 -6 6 -1 11 2 17 5 13 3 -3 4 -12 1 -19z m1756 -8 c-6
-22 -18 -26 -28 -10 -8 13 14 42 25 35 5 -3 6 -14 3 -25z m570 9 c-6 -6 -28
-9 -49 -6 l-39 4 43 1 c24 1 42 7 42 14 0 6 3 8 7 5 4 -4 2 -12 -4 -18z
m-1993 1 c18 -12 2 -12 -25 0 -13 6 -15 9 -5 9 8 0 22 -4 30 -9z m1522 -12
c-12 -12 -35 -1 -27 12 3 5 13 6 21 3 10 -4 12 -9 6 -15z m1843 12 c3 -5 -1
-10 -10 -10 -9 0 -13 5 -10 10 3 6 8 10 10 10 2 0 7 -4 10 -10z m215 -9 c0
-11 -4 -23 -10 -26 -6 -4 -10 5 -10 19 0 14 5 26 10 26 6 0 10 -9 10 -19z
m-4880 -1 c0 -5 -2 -10 -4 -10 -3 0 -8 5 -11 10 -3 6 -1 10 4 10 6 0 11 -4 11
-10z m1130 0 c0 -5 -4 -10 -10 -10 -5 0 -10 5 -10 10 0 6 5 10 10 10 6 0 10
-4 10 -10z m3040 0 c0 -5 -4 -10 -10 -10 -5 0 -10 5 -10 10 0 6 5 10 10 10 6
0 10 -4 10 -10z m673 -3 c3 -8 1 -20 -4 -28 -8 -12 -10 -12 -19 1 -6 10 -10
11 -10 3 0 -9 -7 -10 -26 -3 -14 6 -43 10 -65 10 -23 0 -39 5 -39 11 0 9 20
10 70 5 45 -4 70 -2 70 4 0 15 17 12 23 -3z m-4880 -44 c17 -19 18 -23 4 -23
-29 0 -67 19 -67 34 0 20 34 39 39 23 2 -7 13 -22 24 -34z m3127 37 c0 -5 -7
-10 -16 -10 -8 0 -12 5 -9 10 3 6 10 10 16 10 5 0 9 -4 9 -10z m1930 -20 c0
-16 -4 -30 -10 -30 -5 0 -10 14 -10 30 0 17 5 30 10 30 6 0 10 -13 10 -30z
m-4579 10 c10 0 19 -4 19 -10 0 -5 -18 -9 -40 -7 -22 1 -40 5 -40 8 0 12 14
19 28 14 7 -3 22 -5 33 -5z m917 -13 c2 -10 -3 -17 -12 -17 -18 0 -29 16 -21
31 9 14 29 6 33 -14z m1867 13 c14 -6 2 -9 -40 -9 -42 0 -54 3 -40 9 11 5 29
9 40 9 11 0 29 -4 40 -9z m-3165 -12 c0 -19 -18 -43 -25 -36 -4 3 -2 16 5 27
12 24 20 27 20 9z m3553 -8 c-3 -12 -8 -19 -11 -16 -5 6 5 36 12 36 2 0 2 -9
-1 -20z m-2616 -15 c-4 -8 -17 -15 -29 -14 l-23 0 23 9 c12 5 22 15 22 21 0 7
3 10 6 6 4 -3 4 -13 1 -22z m2863 -6 c0 -5 -4 -9 -10 -9 -5 0 -10 7 -10 16 0
8 5 12 10 9 6 -3 10 -10 10 -16z m870 11 c0 -5 -9 -10 -19 -10 -11 0 -23 5
-26 10 -4 6 5 10 19 10 14 0 26 -4 26 -10z m-4720 -10 c0 -5 -5 -10 -11 -10
-5 0 -7 5 -4 10 3 6 8 10 11 10 2 0 4 -4 4 -10z m1105 0 c3 -5 1 -10 -4 -10
-6 0 -11 5 -11 10 0 6 2 10 4 10 3 0 8 -4 11 -10z m2220 0 c4 -6 -27 -9 -87
-8 -84 1 -88 2 -38 8 87 11 118 11 125 0z m-1958 -6 c-3 -3 -12 -4 -19 -1 -8
3 -5 6 6 6 11 1 17 -2 13 -5z m2106 -1 c-18 -2 -48 -2 -65 0 -18 2 -4 4 32 4
36 0 50 -2 33 -4z m1414 1 c-3 -3 -12 -4 -19 -1 -8 3 -5 6 6 6 11 1 17 -2 13
-5z"/>
<path d="M2823 3523 c15 -2 39 -2 55 0 15 2 2 4 -28 4 -30 0 -43 -2 -27 -4z"/>
<path d="M3098 3503 c17 -2 47 -2 65 0 17 2 3 4 -33 4 -36 0 -50 -2 -32 -4z"/>
<path d="M3890 3488 c0 -4 26 -9 58 -11 l57 -3 -58 -2 c-49 -2 -60 -5 -64 -21
-3 -11 -13 -21 -24 -24 -11 -3 -19 -14 -19 -26 0 -15 -4 -19 -16 -14 -11 4
-15 2 -12 -7 2 -8 22 -16 44 -17 85 -7 105 -13 100 -31 -8 -26 5 -37 47 -37
47 0 49 -19 2 -23 -19 -2 -35 -6 -35 -10 1 -13 30 -46 30 -34 0 7 11 12 25 12
14 0 28 7 31 15 4 8 13 15 21 15 9 0 26 11 39 25 23 25 23 27 8 50 -12 19 -25
25 -51 25 -40 0 -73 24 -47 34 9 3 33 6 54 6 41 0 62 16 39 31 -8 5 -26 9 -41
9 -15 0 -30 5 -33 10 -8 13 80 13 105 0 21 -11 140 -2 140 11 0 13 -77 11
-101 -1 -15 -8 -23 -7 -34 4 -11 10 -12 15 -3 18 7 3 -49 4 -125 4 -75 -1
-137 -4 -137 -8z"/>
<path d="M4391 3478 c12 -22 11 -23 -8 -5 -25 22 -51 13 -64 -21 -8 -21 -14
-24 -44 -19 -23 4 -40 1 -49 -8 -7 -7 -31 -15 -52 -17 -44 -3 -49 -21 -7 -26
31 -4 45 -20 38 -40 -3 -8 -2 -18 1 -24 7 -11 34 36 34 59 0 8 5 11 10 8 14
-9 13 -52 -1 -57 -7 -2 -10 -11 -7 -18 4 -11 15 -4 41 23 40 44 71 47 73 7 1
-14 2 -29 3 -35 1 -12 111 -7 111 5 0 9 -35 20 -70 20 l-25 1 21 17 c16 14 19
23 12 41 -6 18 -4 27 8 36 11 8 15 19 10 30 -6 16 -2 17 34 12 22 -3 40 -1 40
4 0 5 -16 9 -36 9 -21 0 -33 4 -29 10 4 6 -7 10 -25 10 -29 0 -30 -1 -19 -22z
m-17 -24 c26 -10 18 -24 -14 -24 -30 0 -41 14 -17 23 6 3 13 6 14 6 1 1 8 -2
17 -5z m-24 -55 c9 -5 -3 -8 -32 -6 -31 1 -48 6 -48 14 0 13 51 8 80 -8z"/>
<path d="M3833 3473 c9 -2 25 -2 35 0 9 3 1 5 -18 5 -19 0 -27 -2 -17 -5z"/>
<path d="M2958 3439 c-2 -7 -17 -12 -33 -13 -28 -1 -30 -3 -27 -36 5 -45 7
-46 43 -33 27 10 30 10 25 -4 -4 -9 -2 -20 5 -23 14 -10 99 38 99 55 0 32 -13
45 -45 45 -19 0 -37 5 -40 10 -8 13 -22 13 -27 -1z m18 -24 c-11 -8 -27 -15
-35 -15 -13 1 -12 4 3 15 11 8 27 15 35 15 13 -1 12 -4 -3 -15z"/>
<path d="M3107 3325 c-5 -11 0 -15 16 -15 12 0 18 4 12 8 -5 4 -13 11 -16 15
-4 4 -9 1 -12 -8z"/>
<path d="M4503 3323 c-13 -2 -23 -11 -23 -19 0 -16 26 -19 35 -4 3 6 16 10 28
10 18 0 19 2 7 10 -8 5 -17 9 -20 8 -3 0 -15 -3 -27 -5z"/>
<path d="M2713 3303 c-9 -3 -10 -10 -4 -22 7 -13 19 -16 50 -13 50 5 55 22 7
22 -19 0 -36 4 -38 9 -1 4 -9 6 -15 4z"/>
<path d="M2850 3302 c0 -5 14 -9 30 -10 17 0 28 4 25 9 -8 11 -55 12 -55 1z"/>
<path d="M2980 3300 c0 -5 4 -10 9 -10 6 0 13 5 16 10 3 6 -1 10 -9 10 -9 0
-16 -4 -16 -10z"/>
<path d="M4899 3298 c-1 -7 -1 -16 0 -21 1 -4 2 -25 3 -47 1 -29 6 -40 17 -40
20 0 52 20 34 20 -7 0 -12 3 -12 8 5 23 -15 92 -27 92 -8 0 -15 -6 -15 -12z"/>
<path d="M2608 3293 c7 -3 16 -2 19 1 4 3 -2 6 -13 5 -11 0 -14 -3 -6 -6z"/>
<path d="M4540 3280 c0 -13 11 -13 30 0 12 8 11 10 -7 10 -13 0 -23 -4 -23
-10z"/>
<path d="M5009 3263 c0 -16 -2 -38 -5 -50 -3 -18 1 -23 16 -23 11 0 20 5 20
10 0 6 -5 10 -10 10 -7 0 -8 6 -2 16 10 18 4 64 -9 64 -5 0 -9 -12 -10 -27z"/>
<path d="M4968 3273 c7 -3 16 -2 19 1 4 3 -2 6 -13 5 -11 0 -14 -3 -6 -6z"/>
<path d="M2320 3250 c0 -5 5 -10 11 -10 5 0 7 5 4 10 -3 6 -8 10 -11 10 -2 0
-4 -4 -4 -10z"/>
<path d="M3198 3253 c7 -3 16 -2 19 1 4 3 -2 6 -13 5 -11 0 -14 -3 -6 -6z"/>
<path d="M4515 3250 c-4 -6 12 -10 39 -10 25 0 46 5 46 10 0 6 -18 10 -39 10
-22 0 -43 -4 -46 -10z"/>
<path d="M3920 3240 c0 -5 5 -10 11 -10 5 0 7 5 4 10 -3 6 -8 10 -11 10 -2 0
-4 -4 -4 -10z"/>
<path d="M4644 3235 c-5 -11 -22 -15 -66 -15 -41 0 -57 -3 -52 -11 4 -8 26
-10 60 -6 31 3 54 2 54 -4 0 -5 5 -9 11 -9 6 0 9 9 6 20 -4 16 0 20 20 20 13
0 21 4 18 10 -9 15 -45 12 -51 -5z"/>
<path d="M2595 3230 c-3 -5 -3 -14 0 -20 9 -15 35 -12 35 4 0 8 6 17 13 19 6
3 0 6 -15 6 -15 1 -30 -3 -33 -9z"/>
<path d="M2810 3230 c-12 -8 -11 -10 8 -10 12 0 22 5 22 10 0 13 -11 13 -30 0z"/>
<path d="M3565 3229 c-16 -5 -37 -6 -47 -3 -9 2 -19 0 -22 -5 -7 -11 101 -27
111 -17 4 3 -4 6 -17 6 -23 0 -23 0 -4 15 22 16 20 17 -21 4z"/>
<path d="M4755 3230 c3 -5 24 -10 46 -10 59 0 47 -16 -17 -23 -57 -6 -80 -16
-56 -24 9 -4 10 -8 2 -18 -9 -11 -7 -12 9 -8 12 3 21 12 21 19 0 26 31 29 50
4 16 -21 48 -21 35 0 -3 5 2 13 12 18 9 6 17 19 18 31 2 19 -3 21 -62 21 -40
0 -62 -4 -58 -10z"/>
<path d="M2900 3180 c0 -5 11 -10 25 -10 14 0 25 5 25 10 0 6 -11 10 -25 10
-14 0 -25 -4 -25 -10z"/>
<path d="M3225 3180 c-4 -6 12 -10 39 -10 25 0 46 5 46 10 0 6 -18 10 -39 10
-22 0 -43 -4 -46 -10z"/>
<path d="M3400 3180 c0 -5 20 -10 45 -10 25 0 45 5 45 10 0 6 -20 10 -45 10
-25 0 -45 -4 -45 -10z"/>
<path d="M4470 3180 c0 -5 7 -7 15 -4 8 4 15 8 15 10 0 2 -7 4 -15 4 -8 0 -15
-4 -15 -10z"/>
<path d="M4057 3159 c-17 -19 -15 -39 3 -39 8 0 24 49 17 56 -1 2 -11 -6 -20
-17z"/>
<path d="M2347 3164 c-8 -8 1 -24 14 -24 5 0 9 7 9 15 0 15 -12 20 -23 9z"/>
<path d="M2575 3160 c3 -5 10 -10 16 -10 5 0 9 5 9 10 0 6 -7 10 -16 10 -8 0
-12 -4 -9 -10z"/>
<path d="M3573 3163 c15 -2 37 -2 50 0 12 2 0 4 -28 4 -27 0 -38 -2 -22 -4z"/>
<path d="M3915 3160 c-4 -6 7 -10 25 -10 18 0 29 4 25 10 -3 6 -15 10 -25 10
-10 0 -22 -4 -25 -10z"/>
<path d="M4951 3161 c-9 -6 -5 -8 13 -8 15 0 29 3 32 8 7 11 -27 11 -45 0z"/>
<path d="M2480 3148 c0 -8 15 -14 38 -15 35 -2 36 -2 18 12 -24 18 -56 20 -56
3z"/>
<path d="M2830 3156 c0 -2 6 -9 14 -15 10 -9 16 -8 26 4 11 13 8 15 -14 15
-14 0 -26 -2 -26 -4z"/>
<path d="M3208 3153 c7 -3 16 -2 19 1 4 3 -2 6 -13 5 -11 0 -14 -3 -6 -6z"/>
<path d="M3467 3154 c-8 -8 1 -24 14 -24 5 0 9 7 9 15 0 15 -12 20 -23 9z"/>
<path d="M2975 3140 c-8 -13 4 -32 16 -25 12 8 12 35 0 35 -6 0 -13 -4 -16
-10z"/>
<path d="M3380 3134 c0 -8 5 -12 10 -9 6 3 10 10 10 16 0 5 -4 9 -10 9 -5 0
-10 -7 -10 -16z"/>
<path d="M4140 3140 c0 -5 5 -10 10 -10 6 0 10 5 10 10 0 6 -4 10 -10 10 -5 0
-10 -4 -10 -10z"/>
<path d="M4495 3140 c3 -5 13 -10 21 -10 8 0 14 5 14 10 0 6 -9 10 -21 10 -11
0 -17 -4 -14 -10z"/>
<path d="M2321 3124 c0 -11 3 -14 6 -6 3 7 2 16 -1 19 -3 4 -6 -2 -5 -13z"/>
<path d="M4766 3132 c-3 -6 -1 -14 5 -17 15 -10 25 3 12 16 -7 7 -13 7 -17 1z"/>
<path d="M3890 3115 c0 -9 6 -12 15 -9 8 4 12 10 9 15 -8 14 -24 10 -24 -6z"/>
<path d="M4448 3113 c6 -2 18 -2 25 0 6 3 1 5 -13 5 -14 0 -19 -2 -12 -5z"/>
<path d="M4968 3113 c6 -2 18 -2 25 0 6 3 1 5 -13 5 -14 0 -19 -2 -12 -5z"/>
<path d="M5250 3110 c0 -5 5 -10 10 -10 6 0 10 5 10 10 0 6 -4 10 -10 10 -5 0
-10 -4 -10 -10z"/>
<path d="M5605 3110 c-4 -6 5 -10 20 -10 15 0 24 4 20 10 -3 6 -12 10 -20 10
-8 0 -17 -4 -20 -10z"/>
<path d="M2530 3100 c0 -5 7 -10 15 -10 8 0 15 5 15 10 0 6 -7 10 -15 10 -8 0
-15 -4 -15 -10z"/>
<path d="M3664 3103 c11 -11 46 -14 46 -3 0 6 -12 10 -27 10 -14 0 -23 -3 -19
-7z"/>
<path d="M5520 3095 c0 -9 5 -15 11 -13 6 2 11 8 11 13 0 5 -5 11 -11 13 -6 2
-11 -4 -11 -13z"/>
<path d="M4400 3089 c0 -5 9 -9 20 -9 11 0 20 2 20 4 0 2 -9 6 -20 9 -11 3
-20 1 -20 -4z"/>
<path d="M4605 3080 c-3 -5 1 -10 10 -10 9 0 13 5 10 10 -3 6 -8 10 -10 10 -2
0 -7 -4 -10 -10z"/>
<path d="M1598 3063 c7 -3 16 -2 19 1 4 3 -2 6 -13 5 -11 0 -14 -3 -6 -6z"/>
<path d="M2520 3054 c0 -9 7 -14 17 -12 25 5 28 28 4 28 -12 0 -21 -6 -21 -16z"/>
<path d="M1560 3049 c0 -5 5 -7 10 -4 6 3 10 8 10 11 0 2 -4 4 -10 4 -5 0 -10
-5 -10 -11z"/>
<path d="M5630 3053 c14 -2 31 -12 38 -21 11 -15 14 -15 22 -2 15 24 12 26
-37 27 -27 1 -37 -1 -23 -4z"/>
<path d="M5504 3035 c-6 -16 2 -35 16 -35 5 0 7 7 4 15 -4 8 -1 15 5 15 6 0
11 5 11 10 0 16 -30 12 -36 -5z"/>
<path d="M2075 3030 c-3 -5 -2 -10 4 -10 5 0 13 5 16 10 3 6 2 10 -4 10 -5 0
-13 -4 -16 -10z"/>
<path d="M3397 3024 c-3 -3 -3 -12 0 -20 3 -8 -1 -14 -11 -14 -10 0 -13 -5 -9
-17 5 -14 10 -12 30 11 13 15 21 32 18 37 -7 10 -19 12 -28 3z"/>
<path d="M3515 3020 c-3 -5 -1 -10 4 -10 6 0 11 5 11 10 0 6 -2 10 -4 10 -3 0
-8 -4 -11 -10z"/>
<path d="M3612 3018 c-19 -19 -14 -30 9 -23 14 5 19 4 15 -4 -5 -7 -1 -8 10
-4 11 4 13 8 6 11 -7 2 -12 10 -12 18 0 17 -12 18 -28 2z"/>
<path d="M4680 3020 c-11 -7 -5 -10 23 -10 20 0 37 5 37 10 0 13 -40 13 -60 0z"/>
<path d="M2178 3013 c6 -2 18 -2 25 0 6 3 1 5 -13 5 -14 0 -19 -2 -12 -5z"/>
<path d="M2882 2985 c0 -19 4 -35 9 -35 5 0 9 16 9 35 0 19 -4 35 -9 35 -5 0
-9 -16 -9 -35z"/>
<path d="M3866 2985 c3 -26 1 -35 -11 -35 -8 0 -15 -4 -15 -10 0 -14 9 -12 34
8 16 12 21 23 16 37 -4 11 -2 23 4 27 6 5 2 8 -11 8 -19 0 -21 -4 -17 -35z"/>
<path d="M2001 3001 c-8 -5 -9 -11 -3 -15 5 -3 15 1 22 9 14 16 3 20 -19 6z"/>
<path d="M4745 3000 c-7 -12 -4 -12 55 -10 73 3 84 19 13 20 -34 0 -65 -4 -68
-10z"/>
<path d="M5102 2998 c-14 -14 -16 -28 -3 -28 9 0 24 30 18 36 -2 2 -9 -2 -15
-8z"/>
<path d="M3720 2990 c0 -5 7 -10 15 -10 8 0 15 5 15 10 0 6 -7 10 -15 10 -8 0
-15 -4 -15 -10z"/>
<path d="M3775 2990 c-3 -5 1 -10 10 -10 9 0 13 5 10 10 -3 6 -8 10 -10 10 -2
0 -7 -4 -10 -10z"/>
<path d="M2540 2980 c0 -5 5 -10 10 -10 6 0 10 5 10 10 0 6 -4 10 -10 10 -5 0
-10 -4 -10 -10z"/>
<path d="M2728 2983 c7 -3 16 -2 19 1 4 3 -2 6 -13 5 -11 0 -14 -3 -6 -6z"/>
<path d="M3107 2983 c-13 -12 -7 -33 8 -33 8 0 15 9 15 20 0 20 -11 26 -23 13z"/>
<path d="M4878 2983 c12 -2 30 -2 40 0 9 3 -1 5 -23 4 -22 0 -30 -2 -17 -4z"/>
<path d="M3150 2965 c0 -8 5 -15 10 -15 6 0 10 7 10 15 0 8 -4 15 -10 15 -5 0
-10 -7 -10 -15z"/>
<path d="M3465 2969 c-4 -6 -4 -13 -1 -16 8 -8 36 5 36 17 0 13 -27 13 -35 -1z"/>
<path d="M3557 2973 c-12 -11 -8 -23 8 -23 8 0 15 7 15 15 0 16 -12 20 -23 8z"/>
<path d="M4492 2971 c-11 -7 -10 -10 3 -15 30 -11 65 -7 65 9 0 17 -46 21 -68
6z"/>
<path d="M4612 2973 c-15 -6 -6 -23 14 -23 8 0 14 7 14 15 0 15 -6 17 -28 8z"/>
<path d="M4946 2971 c-3 -5 1 -12 10 -15 27 -10 44 -7 44 9 0 16 -45 21 -54 6z"/>
<path d="M3259 2956 c25 -14 51 -11 51 5 0 5 -17 9 -37 9 -37 -1 -38 -1 -14
-14z"/>
<path d="M3680 2960 c0 -5 5 -10 10 -10 6 0 10 5 10 10 0 6 -4 10 -10 10 -5 0
-10 -4 -10 -10z"/>
<path d="M4396 2944 c9 -37 12 -41 20 -21 3 9 -1 24 -11 33 -15 15 -15 14 -9
-12z"/>
<path d="M5240 2963 c0 -13 29 -38 35 -31 3 3 -4 13 -15 23 -11 10 -20 13 -20
8z"/>
<path d="M4767 2950 c-60 -11 -54 -19 15 -18 47 1 65 5 65 15 0 14 -20 15 -80
3z"/>
<path d="M5144 2949 c-8 -14 11 -33 25 -25 6 4 11 14 11 22 0 16 -26 19 -36 3z"/>
<path d="M5295 2951 c-6 -11 9 -23 19 -14 9 9 7 23 -3 23 -6 0 -12 -4 -16 -9z"/>
<path d="M5355 2950 c3 -5 8 -10 11 -10 2 0 4 5 4 10 0 6 -5 10 -11 10 -5 0
-7 -4 -4 -10z"/>
<path d="M3517 2944 c-14 -15 -6 -34 14 -34 14 0 19 5 17 17 -3 18 -20 27 -31
17z"/>
<path d="M4090 2940 c-12 -8 -11 -10 8 -10 12 0 22 5 22 10 0 13 -11 13 -30 0z"/>
<path d="M4891 2941 c-11 -7 -10 -11 7 -20 16 -8 21 -7 26 5 3 9 6 18 6 20 0
7 -24 4 -39 -5z"/>
<path d="M5086 2934 c-10 -26 -7 -34 13 -34 14 0 18 5 14 20 -7 27 -20 34 -27
14z"/>
<path d="M3460 2922 c0 -10 22 -32 32 -32 15 0 8 15 -12 28 -11 7 -20 9 -20 4z"/>
<path d="M4625 2910 c3 -5 12 -10 20 -10 8 0 17 5 20 10 4 6 -5 10 -20 10 -15
0 -24 -4 -20 -10z"/>
<path d="M4690 2880 c0 -5 12 -10 28 -10 21 0 24 2 12 10 -20 13 -40 13 -40 0z"/>
<path d="M4100 2714 c0 -8 5 -12 10 -9 6 4 8 11 5 16 -9 14 -15 11 -15 -7z"/>
<path d="M5530 2720 c0 -5 9 -10 20 -10 11 0 20 5 20 10 0 6 -9 10 -20 10 -11
0 -20 -4 -20 -10z"/>
<path d="M5310 2710 c0 -5 5 -10 10 -10 6 0 10 5 10 10 0 6 -4 10 -10 10 -5 0
-10 -4 -10 -10z"/>
<path d="M4070 2691 c0 -5 5 -13 10 -16 6 -3 10 -2 10 4 0 5 -4 13 -10 16 -5
3 -10 2 -10 -4z"/>
<path d="M4655 2690 c4 -6 10 -8 15 -5 5 3 11 1 15 -5 3 -5 11 -10 17 -10 7 0
6 6 -2 15 -14 17 -55 21 -45 5z"/>
<path d="M2080 2681 c0 -6 -9 -11 -20 -11 -13 0 -20 -7 -20 -20 0 -13 7 -20
20 -20 13 0 20 7 20 20 0 15 7 20 24 20 14 0 27 -4 30 -8 7 -11 66 -3 66 9 0
5 -20 9 -44 9 -24 0 -51 3 -60 6 -9 3 -16 1 -16 -5z"/>
<path d="M3914 2679 c-8 -13 13 -29 39 -29 10 0 17 8 17 20 0 15 -7 20 -24 20
-14 0 -28 -5 -32 -11z"/>
<path d="M4840 2680 c0 -5 5 -10 10 -10 6 0 10 5 10 10 0 6 -4 10 -10 10 -5 0
-10 -4 -10 -10z"/>
<path d="M2373 2665 c0 -8 6 -15 14 -15 7 0 13 7 13 15 0 8 -6 15 -13 15 -8 0
-14 -7 -14 -15z"/>
<path d="M4364 2669 c-6 -11 76 -12 94 -1 7 5 -9 9 -38 9 -28 0 -53 -3 -56 -8z"/>
<path d="M4930 2670 c-11 -7 -5 -10 23 -10 20 0 37 5 37 10 0 13 -40 13 -60 0z"/>
<path d="M3175 2660 c-3 -5 1 -10 9 -10 9 0 16 5 16 10 0 6 -4 10 -9 10 -6 0
-13 -4 -16 -10z"/>
<path d="M4065 2650 c3 -5 10 -10 16 -10 5 0 9 5 9 10 0 6 -7 10 -16 10 -8 0
-12 -4 -9 -10z"/>
<path d="M4560 2620 c0 -5 5 -10 10 -10 6 0 10 5 10 10 0 6 -4 10 -10 10 -5 0
-10 -4 -10 -10z"/>
<path d="M1972 2485 c0 -16 2 -22 5 -12 2 9 2 23 0 30 -3 6 -5 -1 -5 -18z"/>
<path d="M2145 2300 c3 -5 8 -10 11 -10 2 0 4 5 4 10 0 6 -5 10 -11 10 -5 0
-7 -4 -4 -10z"/>
<path d="M3075 2250 c-3 -5 -1 -10 4 -10 6 0 11 5 11 10 0 6 -2 10 -4 10 -3 0
-8 -4 -11 -10z"/>
<path d="M4503 1935 c-7 -8 -13 -19 -13 -25 0 -5 -3 -10 -7 -10 -8 0 -33 -48
-33 -63 0 -5 17 9 38 32 37 40 37 40 85 30 50 -11 58 -22 30 -38 -17 -9 -17
-10 0 -17 10 -4 23 -2 30 5 18 18 40 13 63 -16 16 -21 26 -25 34 -17 14 13
-63 84 -91 84 -11 0 -29 10 -41 22 -25 25 -78 33 -95 13z"/>
<path d="M4298 1889 c-20 -11 -25 -39 -7 -39 6 0 8 -9 4 -20 -3 -11 -2 -20 3
-20 18 0 28 25 23 57 -5 27 -9 30 -23 22z"/>
<path d="M4120 1849 c0 -32 3 -40 15 -36 8 4 17 2 20 -2 3 -5 14 -7 25 -4 15
4 19 11 14 25 -5 17 -3 19 15 13 13 -4 21 -2 21 5 0 6 4 9 8 6 5 -3 9 1 9 9 0
17 -24 28 -33 14 -3 -6 -11 -6 -17 -1 -7 5 -27 9 -44 10 -32 2 -33 1 -33 -39z
m43 12 c-2 -6 3 -11 10 -11 8 0 7 -3 -3 -10 -9 -6 -17 -5 -22 3 -12 19 -9 39
5 34 6 -2 11 -10 10 -16z"/>
<path d="M4250 1816 c0 -22 17 -28 24 -10 9 22 8 24 -9 24 -8 0 -15 -6 -15
-14z"/>
<path d="M4751 1756 c-8 -22 -8 -33 1 -43 9 -11 13 -11 19 -1 6 10 12 8 23 -7
14 -18 15 -18 16 -2 0 9 4 17 10 17 5 0 14 -8 20 -17 7 -11 10 -12 7 -4 -3 16
26 51 43 51 6 0 10 9 10 20 0 11 -7 20 -15 20 -8 0 -15 -6 -15 -12 0 -8 -3 -9
-8 -3 -4 6 -28 10 -53 10 -42 0 -48 -3 -58 -29z m49 -4 c0 -13 -12 -22 -22
-16 -10 6 -1 24 13 24 5 0 9 -4 9 -8z m30 -2 c0 -5 -5 -10 -11 -10 -5 0 -7 5
-4 10 3 6 8 10 11 10 2 0 4 -4 4 -10z"/>
<path d="M4275 1730 c-3 -5 -1 -10 4 -10 6 0 11 5 11 10 0 6 -2 10 -4 10 -3 0
-8 -4 -11 -10z"/>
<path d="M4528 1533 c6 -2 18 -2 25 0 6 3 1 5 -13 5 -14 0 -19 -2 -12 -5z"/>
<path d="M4716 1523 c-6 -14 -5 -15 5 -6 7 7 10 15 7 18 -3 3 -9 -2 -12 -12z"/>
<path d="M5470 1520 c0 -5 5 -10 10 -10 6 0 10 5 10 10 0 6 -4 10 -10 10 -5 0
-10 -4 -10 -10z"/>
<path d="M4600 1480 c8 -5 22 -10 30 -10 13 0 13 1 0 10 -8 5 -22 10 -30 10
-13 0 -13 -1 0 -10z"/>
<path d="M5015 1470 c-3 -5 1 -10 9 -10 9 0 16 5 16 10 0 6 -4 10 -9 10 -6 0
-13 -4 -16 -10z"/>
<path d="M5338 1223 c7 -3 16 -2 19 1 4 3 -2 6 -13 5 -11 0 -14 -3 -6 -6z"/>
<path d="M5090 1080 c0 -5 5 -10 10 -10 6 0 10 5 10 10 0 6 -4 10 -10 10 -5 0
-10 -4 -10 -10z"/>
<path d="M5310 1075 c0 -8 7 -15 15 -15 9 0 12 6 9 15 -4 8 -10 15 -15 15 -5
0 -9 -7 -9 -15z"/>
<path d="M5590 1076 c0 -9 5 -16 10 -16 6 0 10 4 10 9 0 6 -4 13 -10 16 -5 3
-10 -1 -10 -9z"/>
<path d="M4830 1054 c0 -8 5 -12 10 -9 6 3 10 10 10 16 0 5 -4 9 -10 9 -5 0
-10 -7 -10 -16z"/>
<path d="M5277 1043 c-12 -12 -7 -22 8 -17 8 4 15 10 15 15 0 11 -14 12 -23 2z"/>
<path d="M5550 1040 c0 -5 7 -10 15 -10 8 0 15 5 15 10 0 6 -7 10 -15 10 -8 0
-15 -4 -15 -10z"/>
<path d="M5600 1035 c0 -8 4 -15 10 -15 5 0 7 7 4 15 -4 8 -8 15 -10 15 -2 0
-4 -7 -4 -15z"/>
<path d="M4855 1020 c3 -5 8 -10 11 -10 2 0 4 5 4 10 0 6 -5 10 -11 10 -5 0
-7 -4 -4 -10z"/>
<path d="M5505 970 c-3 -5 -1 -10 4 -10 6 0 11 5 11 10 0 6 -2 10 -4 10 -3 0
-8 -4 -11 -10z"/>
<path d="M5600 970 c0 -5 5 -10 10 -10 6 0 10 5 10 10 0 6 -4 10 -10 10 -5 0
-10 -4 -10 -10z"/>
<path d="M5050 925 c0 -14 35 -75 43 -75 5 0 4 7 -3 15 -7 8 -10 21 -7 29 3 7
0 19 -6 25 -11 11 -27 15 -27 6z"/>
<path d="M5005 910 c-3 -6 1 -7 9 -4 18 7 21 14 7 14 -6 0 -13 -4 -16 -10z"/>
<path d="M5343 843 c-25 -10 -12 -23 22 -23 36 0 47 13 19 24 -18 7 -23 7 -41
-1z"/>
<path d="M5310 700 c0 -5 5 -10 10 -10 6 0 10 5 10 10 0 6 -4 10 -10 10 -5 0
-10 -4 -10 -10z"/>
<path d="M5663 673 c9 -2 23 -2 30 0 6 3 -1 5 -18 5 -16 0 -22 -2 -12 -5z"/>
<path d="M5430 614 c0 -8 5 -12 10 -9 6 4 8 11 5 16 -9 14 -15 11 -15 -7z"/>
<path d="M5600 605 c0 -8 5 -15 10 -15 6 0 10 7 10 15 0 8 -4 15 -10 15 -5 0
-10 -7 -10 -15z"/>
<path d="M5540 555 c0 -8 7 -15 15 -15 8 0 15 7 15 15 0 8 -7 15 -15 15 -8 0
-15 -7 -15 -15z"/>
<path d="M5418 543 c7 -3 16 -2 19 1 4 3 -2 6 -13 5 -11 0 -14 -3 -6 -6z"/>
<path d="M5460 500 c0 -16 3 -30 8 -30 4 0 17 -3 30 -6 18 -5 22 -2 22 16 0
23 -25 49 -47 50 -8 0 -13 -12 -13 -30z"/>
<path d="M5585 520 c-4 -7 -3 -16 3 -22 14 -14 45 -2 40 15 -6 16 -34 21 -43
7z"/>
<path d="M5431 494 c0 -11 3 -14 6 -6 3 7 2 16 -1 19 -3 4 -6 -2 -5 -13z"/>
<path d="M5545 440 c4 -6 11 -8 16 -5 14 9 11 15 -7 15 -8 0 -12 -5 -9 -10z"/>
<path d="M5674 397 c3 -49 22 -70 32 -33 3 14 3 34 -1 43 -7 17 -8 16 -15 -2
-7 -19 -8 -18 -13 5 -3 14 -4 9 -3 -13z"/>
<path d="M5385 270 c3 -5 11 -10 16 -10 6 0 7 5 4 10 -3 6 -11 10 -16 10 -6 0
-7 -4 -4 -10z"/>
<path d="M5342 219 c-33 -13 -22 -34 19 -35 19 -1 28 0 22 3 -7 3 -13 11 -13
19 0 7 6 11 14 8 8 -3 17 -1 21 5 8 13 -31 13 -63 0z"/>
<path d="M5005 110 c3 -5 8 -10 11 -10 2 0 4 5 4 10 0 6 -5 10 -11 10 -5 0 -7
-4 -4 -10z"/>
<path d="M5000 3440 c-12 -8 -9 -10 13 -10 16 0 26 4 22 10 -8 12 -16 12 -35
0z"/>
<path d="M1600 3338 c0 -9 -6 -19 -12 -21 -7 -3 -8 -6 -3 -6 6 0 17 4 25 9 12
7 12 12 2 22 -9 9 -12 9 -12 -4z"/>
<path d="M1937 3253 c-4 -3 -7 -11 -7 -17 0 -6 5 -5 12 2 6 6 9 14 7 17 -3 3
-9 2 -12 -2z"/>
<path d="M1810 3210 c0 -11 5 -20 10 -20 6 0 10 9 10 20 0 11 -4 20 -10 20 -5
0 -10 -9 -10 -20z"/>
<path d="M1015 2550 c3 -5 8 -10 11 -10 2 0 4 5 4 10 0 6 -5 10 -11 10 -5 0
-7 -4 -4 -10z"/>
<path d="M1135 2530 c-3 -5 1 -10 9 -10 9 0 16 5 16 10 0 6 -4 10 -9 10 -6 0
-13 -4 -16 -10z"/>
<path d="M1080 2509 c0 -5 5 -7 10 -4 6 3 10 8 10 11 0 2 -4 4 -10 4 -5 0 -10
-5 -10 -11z"/>
<path d="M1015 2461 c-3 -5 -1 -12 5 -16 5 -3 10 1 10 9 0 18 -6 21 -15 7z"/>
<path d="M1195 2460 c3 -5 8 -10 11 -10 2 0 4 5 4 10 0 6 -5 10 -11 10 -5 0
-7 -4 -4 -10z"/>
<path d="M1248 2383 c7 -3 16 -2 19 1 4 3 -2 6 -13 5 -11 0 -14 -3 -6 -6z"/>
<path d="M1580 2410 c0 -5 7 -10 16 -10 8 0 12 5 9 10 -3 6 -10 10 -16 10 -5
0 -9 -4 -9 -10z"/>
<path d="M1700 2239 c0 -5 5 -7 10 -4 6 3 10 8 10 11 0 2 -4 4 -10 4 -5 0 -10
-5 -10 -11z"/>
<path d="M1711 2083 c-1 -16 5 -23 17 -23 10 0 13 3 6 8 -6 4 -14 14 -17 22
-4 10 -6 8 -6 -7z"/>
<path d="M2870 2320 c-9 -6 -10 -10 -3 -10 6 0 15 5 18 10 8 12 4 12 -15 0z"/>
<path d="M1971 2224 c0 -11 3 -14 6 -6 3 7 2 16 -1 19 -3 4 -6 -2 -5 -13z"/>
<path d="M2001 2226 c-10 -12 -8 -13 8 -9 12 3 21 9 21 14 0 14 -16 11 -29 -5z"/>
<path d="M1990 2040 c8 -5 20 -10 25 -10 6 0 3 5 -5 10 -8 5 -19 10 -25 10 -5
0 -3 -5 5 -10z"/>
<path d="M2288 2023 c7 -3 16 -2 19 1 4 3 -2 6 -13 5 -11 0 -14 -3 -6 -6z"/>
<path d="M2187 1949 c7 -7 15 -10 18 -7 3 3 -2 9 -12 12 -14 6 -15 5 -6 -5z"/>
<path d="M3170 1849 c0 -5 5 -7 10 -4 6 3 10 8 10 11 0 2 -4 4 -10 4 -5 0 -10
-5 -10 -11z"/>
<path d="M2880 1769 c0 -5 5 -7 10 -4 6 3 10 8 10 11 0 2 -4 4 -10 4 -5 0 -10
-5 -10 -11z"/>
<path d="M3226 1741 c-4 -5 3 -7 14 -4 23 6 26 13 6 13 -8 0 -17 -4 -20 -9z"/>
<path d="M3410 1645 c0 -8 4 -15 10 -15 5 0 7 7 4 15 -4 8 -8 15 -10 15 -2 0
-4 -7 -4 -15z"/>
<path d="M3910 1705 c0 -8 2 -15 4 -15 2 0 6 7 10 15 3 8 1 15 -4 15 -6 0 -10
-7 -10 -15z"/>
<path d="M4278 1523 c7 -3 16 -2 19 1 4 3 -2 6 -13 5 -11 0 -14 -3 -6 -6z"/>
<path d="M3795 1370 c-3 -5 1 -10 10 -10 9 0 13 5 10 10 -3 6 -8 10 -10 10 -2
0 -7 -4 -10 -10z"/>
<path d="M4510 1206 c0 -2 7 -7 16 -10 8 -3 12 -2 9 4 -6 10 -25 14 -25 6z"/>
<path d="M4535 1160 c3 -5 8 -10 11 -10 2 0 4 5 4 10 0 6 -5 10 -11 10 -5 0
-7 -4 -4 -10z"/>
<path d="M3930 1090 c0 -5 5 -10 10 -10 6 0 10 5 10 10 0 6 -4 10 -10 10 -5 0
-10 -4 -10 -10z"/>
<path d="M3970 1090 c0 -5 5 -10 10 -10 6 0 10 5 10 10 0 6 -4 10 -10 10 -5 0
-10 -4 -10 -10z"/>
<path d="M4365 980 c-3 -5 1 -10 10 -10 9 0 13 5 10 10 -3 6 -8 10 -10 10 -2
0 -7 -4 -10 -10z"/>
<path d="M4922 861 c4 -13 18 -16 19 -4 0 4 -5 9 -11 12 -7 2 -11 -2 -8 -8z"/>
<path d="M4518 843 c7 -3 16 -2 19 1 4 3 -2 6 -13 5 -11 0 -14 -3 -6 -6z"/>
<path d="M4598 843 c7 -3 16 -2 19 1 4 3 -2 6 -13 5 -11 0 -14 -3 -6 -6z"/>
<path d="M4480 809 c0 -3 10 -9 23 -13 30 -8 37 -7 37 3 0 5 -13 11 -30 13
-16 3 -30 1 -30 -3z"/>
<path d="M4326 801 c-7 -11 71 -19 87 -9 14 9 14 9 -40 14 -23 2 -44 0 -47 -5z"/>
<path d="M4960 798 c0 -4 7 -8 15 -8 8 0 15 4 15 8 0 5 -7 9 -15 9 -8 0 -15
-4 -15 -9z"/>
<path d="M4537 759 c7 -7 15 -10 18 -7 3 3 -2 9 -12 12 -14 6 -15 5 -6 -5z"/>
<path d="M4665 740 c3 -5 8 -10 11 -10 2 0 4 5 4 10 0 6 -5 10 -11 10 -5 0 -7
-4 -4 -10z"/>
<path d="M4606 721 c5 -5 20 -12 34 -16 22 -7 23 -6 11 9 -7 9 -23 16 -34 16
-13 0 -17 -4 -11 -9z"/>
<path d="M5090 690 c0 -5 5 -10 10 -10 6 0 10 5 10 10 0 6 -4 10 -10 10 -5 0
-10 -4 -10 -10z"/>
<path d="M4875 680 c-3 -6 1 -7 9 -4 18 7 21 14 7 14 -6 0 -13 -4 -16 -10z"/>
<path d="M5050 669 c0 -5 5 -7 10 -4 6 3 10 8 10 11 0 2 -4 4 -10 4 -5 0 -10
-5 -10 -11z"/>
<path d="M5038 648 c5 -5 16 -8 23 -6 8 3 3 7 -10 11 -17 4 -21 3 -13 -5z"/>
<path d="M1975 290 c-3 -5 1 -10 9 -10 9 0 16 5 16 10 0 6 -4 10 -9 10 -6 0
-13 -4 -16 -10z"/>
<path d="M13 3523 c9 -2 23 -2 30 0 6 3 -1 5 -18 5 -17 0 -22 -2 -12 -5z"/>
<path d="M213 3523 c32 -2 81 -2 110 0 29 2 3 3 -58 3 -60 0 -84 -1 -52 -3z"/>
<path d="M315 3503 c-19 -5 -35 -20 -35 -35 0 -10 52 -10 65 0 13 9 13 35 0
37 -5 2 -19 0 -30 -2z"/>
<path d="M33 3493 c9 -2 25 -2 35 0 9 3 1 5 -18 5 -19 0 -27 -2 -17 -5z"/>
<path d="M190 3490 c0 -5 -17 -10 -37 -10 -29 -1 -34 -3 -21 -10 23 -14 108
-1 108 16 0 8 -11 14 -25 14 -14 0 -25 -4 -25 -10z"/>
<path d="M28 3473 c7 -3 16 -2 19 1 4 3 -2 6 -13 5 -11 0 -14 -3 -6 -6z"/>
<path d="M12 3448 c-15 -15 -15 -41 0 -56 19 -19 28 -14 28 16 0 38 -13 55
-28 40z"/>
<path d="M445 3450 c3 -5 13 -10 21 -10 8 0 14 5 14 10 0 6 -9 10 -21 10 -11
0 -17 -4 -14 -10z"/>
<path d="M280 3440 c0 -13 40 -13 60 0 11 7 5 10 -22 10 -21 0 -38 -4 -38 -10z"/>
<path d="M70 3405 c-7 -14 -17 -25 -22 -25 -4 0 -8 -9 -8 -20 0 -22 18 -27 25
-7 4 8 27 11 78 9 66 -2 70 -1 53 13 -11 8 -25 15 -30 16 -6 1 0 4 14 9 l25 7
-28 12 c-49 20 -92 14 -107 -14z"/>
<path d="M240 3419 c0 -5 5 -7 10 -4 6 3 10 8 10 11 0 2 -4 4 -10 4 -5 0 -10
-5 -10 -11z"/>
<path d="M323 3423 c-29 -2 -53 -8 -53 -14 0 -12 83 -12 96 0 5 5 25 11 44 14
l35 4 -35 0 c-19 -1 -59 -2 -87 -4z"/>
<path d="M323 3383 c-30 -2 -53 -9 -53 -15 0 -14 148 -4 163 11 11 11 3 12
-110 4z"/>
<path d="M365 3340 c-3 -5 3 -10 14 -10 12 0 21 5 21 10 0 6 -6 10 -14 10 -8
0 -18 -4 -21 -10z"/>
<path d="M400 3310 c0 -5 7 -10 15 -10 8 0 15 5 15 10 0 6 -7 10 -15 10 -8 0
-15 -4 -15 -10z"/>
<path d="M15 3300 c4 -6 11 -8 16 -5 14 9 11 15 -7 15 -8 0 -12 -5 -9 -10z"/>
<path d="M206 3281 c-10 -16 5 -43 21 -37 8 3 21 6 29 6 20 0 17 16 -3 24 -10
3 -23 8 -30 12 -6 3 -14 1 -17 -5z"/>
<path d="M315 3280 c-4 -6 12 -10 39 -10 25 0 46 5 46 10 0 6 -18 10 -39 10
-22 0 -43 -4 -46 -10z"/>
<path d="M980 3220 c11 -11 20 -24 20 -30 0 -5 14 -10 32 -10 30 0 31 1 12 16
-10 8 -14 13 -7 10 6 -4 14 -2 17 3 3 5 -14 14 -39 20 -58 14 -58 14 -35 -9z"/>
<path d="M360 3219 c0 -5 5 -7 10 -4 6 3 10 8 10 11 0 2 -4 4 -10 4 -5 0 -10
-5 -10 -11z"/>
<path d="M570 3223 c0 -5 5 -15 10 -23 8 -12 10 -11 10 8 0 12 -4 22 -10 22
-5 0 -10 -3 -10 -7z"/>
<path d="M693 3215 c0 -8 4 -12 9 -9 4 3 8 9 8 15 0 5 -4 9 -8 9 -5 0 -9 -7
-9 -15z"/>
<path d="M42 3190 c-6 -11 -12 -22 -12 -25 0 -11 20 6 30 26 14 25 -2 25 -18
-1z"/>
<path d="M1149 3179 c25 -5 48 -14 53 -21 6 -9 8 -7 6 7 -3 17 -12 20 -53 22
l-50 1 44 -9z"/>
<path d="M591 3164 c0 -11 3 -14 6 -6 3 7 2 16 -1 19 -3 4 -6 -2 -5 -13z"/>
<path d="M820 3160 c0 -5 5 -10 10 -10 6 0 10 5 10 10 0 6 -4 10 -10 10 -5 0
-10 -4 -10 -10z"/>
<path d="M964 3161 c4 -5 -4 -7 -16 -3 -14 3 -19 2 -14 -6 4 -7 31 -12 62 -12
30 0 53 4 50 9 -3 4 -17 6 -31 3 -15 -2 -25 0 -25 7 0 6 -7 11 -16 11 -8 0
-13 -4 -10 -9z"/>
<path d="M320 3149 c0 -5 5 -7 10 -4 6 3 10 8 10 11 0 2 -4 4 -10 4 -5 0 -10
-5 -10 -11z"/>
<path d="M80 3124 c0 -8 5 -12 10 -9 6 4 8 11 5 16 -9 14 -15 11 -15 -7z"/>
<path d="M1257 3134 c-12 -12 4 -24 34 -24 16 0 29 5 29 10 0 6 -6 10 -14 10
-8 0 -21 2 -28 5 -8 3 -17 3 -21 -1z"/>
<path d="M820 3101 c0 -17 5 -31 10 -31 6 0 10 11 10 24 0 14 -4 28 -10 31 -6
4 -10 -7 -10 -24z"/>
<path d="M1023 3113 c15 -2 37 -2 50 0 12 2 0 4 -28 4 -27 0 -38 -2 -22 -4z"/>
<path d="M610 3100 c0 -5 5 -10 10 -10 6 0 10 5 10 10 0 6 -4 10 -10 10 -5 0
-10 -4 -10 -10z"/>
<path d="M755 3100 c-3 -5 -2 -17 3 -26 8 -14 10 -14 21 0 13 15 8 36 -9 36
-5 0 -12 -4 -15 -10z"/>
<path d="M1410 3080 c0 -5 7 -10 15 -10 8 0 15 5 15 10 0 6 -7 10 -15 10 -8 0
-15 -4 -15 -10z"/>
<path d="M1170 3004 c0 -9 5 -14 12 -12 18 6 21 28 4 28 -9 0 -16 -7 -16 -16z"/>
<path d="M540 2991 c0 -11 40 -22 52 -15 5 3 6 10 3 15 -8 12 -55 12 -55 0z"/>
<path d="M439 2971 l-24 -19 28 -7 c33 -9 51 4 41 28 -8 22 -16 21 -45 -2z"/>
<path d="M1175 2980 c-11 -5 -35 -9 -52 -9 -37 -1 -46 -20 -10 -23 12 0 29 -1
37 -2 8 -1 16 -9 18 -19 6 -28 22 -20 22 11 0 15 5 33 12 40 14 14 2 15 -27 2z"/>
<path d="M205 2969 c-4 -6 -5 -12 -2 -15 7 -7 37 7 37 17 0 13 -27 11 -35 -2z"/>
<path d="M980 2940 c0 -5 5 -10 11 -10 5 0 7 5 4 10 -3 6 -8 10 -11 10 -2 0
-4 -4 -4 -10z"/>
<path d="M1385 2940 c-8 -13 25 -13 45 0 12 8 9 10 -12 10 -15 0 -30 -4 -33
-10z"/>
<path d="M860 2925 c0 -8 5 -15 10 -15 6 0 10 7 10 15 0 8 -4 15 -10 15 -5 0
-10 -7 -10 -15z"/>
<path d="M1216 2931 c-4 -7 -5 -15 -2 -18 9 -9 19 4 14 18 -4 11 -6 11 -12 0z"/>
<path d="M711 2913 c-1 -17 11 -22 34 -12 19 9 19 9 -2 5 -12 -2 -24 1 -27 8
-3 8 -5 8 -5 -1z"/>
<path d="M1375 2900 c-7 -12 2 -30 16 -30 12 0 12 27 0 35 -5 3 -12 1 -16 -5z"/>
<path d="M1768 2893 c7 -3 16 -2 19 1 4 3 -2 6 -13 5 -11 0 -14 -3 -6 -6z"/>
<path d="M1135 2880 c-3 -5 -1 -10 4 -10 6 0 11 5 11 10 0 6 -2 10 -4 10 -3 0
-8 -4 -11 -10z"/>
<path d="M1670 2880 c-26 -16 -3 -22 27 -6 23 13 24 15 8 15 -11 1 -27 -3 -35
-9z"/>
<path d="M1800 2880 c0 -5 7 -10 15 -10 8 0 15 5 15 10 0 6 -7 10 -15 10 -8 0
-15 -4 -15 -10z"/>
<path d="M1768 2863 c7 -3 16 -2 19 1 4 3 -2 6 -13 5 -11 0 -14 -3 -6 -6z"/>
<path d="M720 2840 c0 -5 5 -10 11 -10 5 0 7 5 4 10 -3 6 -8 10 -11 10 -2 0
-4 -4 -4 -10z"/>
<path d="M775 2790 c-3 -5 -1 -10 4 -10 6 0 11 5 11 10 0 6 -2 10 -4 10 -3 0
-8 -4 -11 -10z"/>
<path d="M1052 2785 c-11 -12 -10 -15 3 -15 8 0 15 7 15 15 0 18 -2 18 -18 0z"/>
<path d="M990 2780 c0 -5 7 -7 15 -4 8 4 15 8 15 10 0 2 -7 4 -15 4 -8 0 -15
-4 -15 -10z"/>
<path d="M821 2766 c-9 -11 -6 -12 14 -8 14 2 28 8 31 13 9 15 -33 10 -45 -5z"/>
<path d="M1807 2743 c-10 -10 -8 -43 2 -43 6 0 13 5 16 10 4 6 11 8 16 5 5 -4
9 1 9 10 0 9 -4 13 -10 10 -5 -3 -10 -1 -10 4 0 12 -13 14 -23 4z"/>
<path d="M1230 2730 c0 -5 4 -10 9 -10 6 0 13 5 16 10 3 6 -1 10 -9 10 -9 0
-16 -4 -16 -10z"/>
<path d="M495 2720 c-3 -5 -1 -10 4 -10 6 0 11 5 11 10 0 6 -2 10 -4 10 -3 0
-8 -4 -11 -10z"/>
<path d="M1450 2680 c0 -5 -8 -10 -17 -10 -12 0 -14 -3 -6 -11 13 -13 57 6 48
22 -8 12 -25 12 -25 -1z"/>
<path d="M526 2663 c-6 -14 -5 -15 5 -6 7 7 10 15 7 18 -3 3 -9 -2 -12 -12z"/>
<path d="M1298 2663 c6 -2 18 -2 25 0 6 3 1 5 -13 5 -14 0 -19 -2 -12 -5z"/>
<path d="M1485 2651 c-7 -12 12 -24 25 -16 11 7 4 25 -10 25 -5 0 -11 -4 -15
-9z"/>
<path d="M1541 2639 c-1 -19 26 -45 36 -35 3 3 1 6 -6 6 -6 0 -16 10 -21 23
-6 15 -9 17 -9 6z"/>
<path d="M1615 2570 c4 -6 11 -8 16 -5 14 9 11 15 -7 15 -8 0 -12 -5 -9 -10z"/>
<path d="M630 2560 c8 -5 20 -10 25 -10 6 0 3 5 -5 10 -8 5 -19 10 -25 10 -5
0 -3 -5 5 -10z"/>
<path d="M670 2545 c0 -10 -13 -13 -47 -11 -29 2 -34 1 -13 -2 l35 -5 -39 -12
c-42 -12 -56 -29 -33 -38 20 -8 98 21 120 43 22 24 21 27 -3 33 -13 3 -20 0
-20 -8z"/>
<path d="M1590 2551 c0 -6 4 -13 10 -16 6 -3 7 1 4 9 -7 18 -14 21 -14 7z"/>
<path d="M1665 2540 c-3 -5 -1 -10 4 -10 6 0 11 5 11 10 0 6 -2 10 -4 10 -3 0
-8 -4 -11 -10z"/>
<path d="M1850 2540 c0 -5 5 -10 10 -10 6 0 10 5 10 10 0 6 -4 10 -10 10 -5 0
-10 -4 -10 -10z"/>
<path d="M518 2513 c7 -3 16 -2 19 1 4 3 -2 6 -13 5 -11 0 -14 -3 -6 -6z"/>
<path d="M1603 2513 c9 -2 23 -2 30 0 6 3 -1 5 -18 5 -16 0 -22 -2 -12 -5z"/>
<path d="M1707 2509 c7 -7 15 -10 18 -7 3 3 -2 9 -12 12 -14 6 -15 5 -6 -5z"/>
<path d="M1558 2503 c7 -3 16 -2 19 1 4 3 -2 6 -13 5 -11 0 -14 -3 -6 -6z"/>
<path d="M1720 2479 c0 -5 5 -7 10 -4 6 3 10 8 10 11 0 2 -4 4 -10 4 -5 0 -10
-5 -10 -11z"/>
<path d="M200 2430 c0 -5 5 -10 10 -10 6 0 10 5 10 10 0 6 -4 10 -10 10 -5 0
-10 -4 -10 -10z"/>
<path d="M790 2430 c0 -5 5 -10 11 -10 5 0 7 5 4 10 -3 6 -8 10 -11 10 -2 0
-4 -4 -4 -10z"/>
<path d="M1205 2000 c3 -5 10 -10 16 -10 5 0 9 5 9 10 0 6 -7 10 -16 10 -8 0
-12 -4 -9 -10z"/>
<path d="M976 1503 c-4 -9 -2 -21 4 -27 7 -7 10 -2 10 17 0 31 -5 34 -14 10z"/>
<path d="M1010 1490 c0 -11 5 -20 10 -20 6 0 10 9 10 20 0 11 -4 20 -10 20 -5
0 -10 -9 -10 -20z"/>
<path d="M1860 1500 c0 -5 5 -10 10 -10 6 0 10 5 10 10 0 6 -4 10 -10 10 -5 0
-10 -4 -10 -10z"/>
<path d="M610 1480 c-12 -8 -11 -10 8 -10 12 0 22 5 22 10 0 13 -11 13 -30 0z"/>
<path d="M1895 1470 c-3 -5 -1 -10 4 -10 6 0 11 5 11 10 0 6 -2 10 -4 10 -3 0
-8 -4 -11 -10z"/>
<path d="M2110 1400 c0 -5 4 -10 9 -10 6 0 13 5 16 10 3 6 -1 10 -9 10 -9 0
-16 -4 -16 -10z"/>
<path d="M2058 1383 c7 -3 16 -2 19 1 4 3 -2 6 -13 5 -11 0 -14 -3 -6 -6z"/>
<path d="M1615 1350 c4 -6 11 -8 16 -5 14 9 11 15 -7 15 -8 0 -12 -5 -9 -10z"/>
<path d="M2158 1343 c7 -3 16 -2 19 1 4 3 -2 6 -13 5 -11 0 -14 -3 -6 -6z"/>
<path d="M1740 1330 c0 -5 9 -10 20 -10 11 0 20 5 20 10 0 6 -9 10 -20 10 -11
0 -20 -4 -20 -10z"/>
<path d="M230 1286 c0 -9 5 -16 10 -16 6 0 10 4 10 9 0 6 -4 13 -10 16 -5 3
-10 -1 -10 -9z"/>
<path d="M1893 1232 c-7 -12 -8 -24 -2 -33 7 -11 10 -9 15 9 4 12 10 22 15 22
5 0 9 5 9 10 0 17 -24 11 -37 -8z"/>
<path d="M2206 1161 c-4 -5 -2 -12 3 -15 5 -4 12 -2 15 3 4 5 2 12 -3 15 -5 4
-12 2 -15 -3z"/>
<path d="M2058 1143 c7 -3 16 -2 19 1 4 3 -2 6 -13 5 -11 0 -14 -3 -6 -6z"/>
<path d="M2085 1120 c3 -5 17 -10 31 -10 13 0 24 5 24 10 0 6 -14 10 -31 10
-17 0 -28 -4 -24 -10z"/>
<path d="M570 1110 c0 -5 5 -10 10 -10 6 0 10 5 10 10 0 6 -4 10 -10 10 -5 0
-10 -4 -10 -10z"/>
<path d="M1865 1080 c-4 -6 5 -10 20 -10 15 0 24 4 20 10 -3 6 -12 10 -20 10
-8 0 -17 -4 -20 -10z"/>
<path d="M1268 1073 c12 -2 32 -2 45 0 12 2 2 4 -23 4 -25 0 -35 -2 -22 -4z"/>
<path d="M1197 1053 c-4 -3 -7 -11 -7 -17 0 -6 5 -5 12 2 6 6 9 14 7 17 -3 3
-9 2 -12 -2z"/>
<path d="M1805 1051 c-7 -12 12 -24 25 -16 11 7 4 25 -10 25 -5 0 -11 -4 -15
-9z"/>
<path d="M2700 1050 c0 -5 7 -10 15 -10 8 0 15 5 15 10 0 6 -7 10 -15 10 -8 0
-15 -4 -15 -10z"/>
<path d="M1273 1023 c9 -2 23 -2 30 0 6 3 -1 5 -18 5 -16 0 -22 -2 -12 -5z"/>
<path d="M1752 1018 c-14 -14 -16 -54 -3 -62 5 -3 11 11 13 32 6 44 5 45 -10
30z"/>
<path d="M1430 998 c0 -13 5 -30 10 -38 7 -11 10 -5 10 23 0 20 -4 37 -10 37
-5 0 -10 -10 -10 -22z"/>
<path d="M1491 990 c0 -33 1 -34 11 -12 8 17 8 26 0 34 -9 9 -12 4 -11 -22z"/>
<path d="M205 1000 c-3 -5 -1 -10 4 -10 6 0 11 5 11 10 0 6 -2 10 -4 10 -3 0
-8 -4 -11 -10z"/>
<path d="M2640 990 c0 -5 5 -10 11 -10 5 0 7 5 4 10 -3 6 -8 10 -11 10 -2 0
-4 -4 -4 -10z"/>
<path d="M1910 981 c0 -18 18 -21 30 -6 10 13 9 15 -9 15 -11 0 -21 -4 -21 -9z"/>
<path d="M2854 919 c-21 -9 -14 -12 33 -13 18 -1 33 2 33 5 0 11 -45 16 -66 8z"/>
<path d="M1460 880 c0 -5 5 -10 11 -10 5 0 7 5 4 10 -3 6 -8 10 -11 10 -2 0
-4 -4 -4 -10z"/>
<path d="M2670 869 c0 -5 5 -7 10 -4 6 3 10 8 10 11 0 2 -4 4 -10 4 -5 0 -10
-5 -10 -11z"/>
<path d="M2328 863 c7 -3 16 -2 19 1 4 3 -2 6 -13 5 -11 0 -14 -3 -6 -6z"/>
<path d="M3117 849 c7 -7 15 -10 18 -7 3 3 -2 9 -12 12 -14 6 -15 5 -6 -5z"/>
<path d="M1880 832 c0 -16 37 -24 57 -13 16 9 16 10 -4 11 -12 0 -28 3 -37 6
-9 3 -16 1 -16 -4z"/>
<path d="M3241 836 c2 -2 15 -9 29 -15 24 -11 24 -11 6 3 -16 13 -49 24 -35
12z"/>
<path d="M1820 796 c0 -19 25 -27 39 -13 18 18 13 27 -14 27 -15 0 -25 -6 -25
-14z"/>
<path d="M2153 803 c9 -2 23 -2 30 0 6 3 -1 5 -18 5 -16 0 -22 -2 -12 -5z"/>
<path d="M1980 760 c-12 -8 -12 -10 5 -10 17 0 17 -2 5 -10 -11 -7 -7 -10 19
-10 26 0 32 3 27 16 -3 9 -6 18 -6 20 0 8 -35 4 -50 -6z"/>
<path d="M1760 744 c0 -17 22 -14 28 4 2 7 -3 12 -12 12 -9 0 -16 -7 -16 -16z"/>
<path d="M2740 740 c0 -5 12 -10 26 -10 14 0 23 4 19 10 -3 6 -15 10 -26 10
-10 0 -19 -4 -19 -10z"/>
<path d="M1011 714 c0 -11 3 -14 6 -6 3 7 2 16 -1 19 -3 4 -6 -2 -5 -13z"/>
<path d="M2800 710 c0 -5 -7 -10 -17 -10 -9 0 -14 -2 -11 -5 8 -9 58 6 58 16
0 5 -7 9 -15 9 -8 0 -15 -4 -15 -10z"/>
<path d="M1185 700 c3 -5 8 -10 11 -10 2 0 4 5 4 10 0 6 -5 10 -11 10 -5 0 -7
-4 -4 -10z"/>
<path d="M1495 701 c-3 -5 -2 -12 3 -15 13 -8 53 5 46 15 -7 12 -41 12 -49 0z"/>
<path d="M1970 690 c0 -5 11 -10 25 -10 14 0 25 5 25 10 0 6 -11 10 -25 10
-14 0 -25 -4 -25 -10z"/>
<path d="M966 675 c-20 -15 -20 -15 0 -30 10 -8 22 -15 25 -15 11 0 19 29 13
45 -7 18 -14 18 -38 0z"/>
<path d="M2820 677 c3 -3 19 -6 35 -8 17 -2 35 -7 42 -12 6 -4 14 -3 18 3 3 5
5 10 3 11 -21 4 -102 9 -98 6z"/>
<path d="M1360 654 c-14 -7 -19 -14 -12 -14 6 0 12 -7 12 -16 0 -10 7 -14 23
-12 16 2 23 11 25 31 4 30 -8 33 -48 11z"/>
<path d="M2063 651 c-11 -9 -23 -29 -27 -44 l-7 -28 53 3 c29 2 59 9 67 16 10
9 17 10 24 3 16 -16 27 -13 21 3 -6 17 -62 19 -81 4 -14 -11 -43 -4 -43 11 0
5 11 11 25 13 25 3 25 4 7 19 -18 15 -21 15 -39 0z"/>
<path d="M3645 660 c3 -5 8 -10 11 -10 2 0 4 5 4 10 0 6 -5 10 -11 10 -5 0 -7
-4 -4 -10z"/>
<path d="M1177 649 c8 -8 16 -8 30 0 16 9 14 10 -11 11 -22 0 -27 -3 -19 -11z"/>
<path d="M1807 644 c-14 -14 -7 -25 13 -22 12 2 21 8 21 13 0 12 -24 18 -34 9z"/>
<path d="M2528 638 c9 -9 15 -9 24 0 9 9 7 12 -12 12 -19 0 -21 -3 -12 -12z"/>
<path d="M2770 642 c0 -5 9 -12 21 -15 13 -3 19 -1 16 6 -5 15 -37 22 -37 9z"/>
<path d="M3680 640 c0 -12 28 -25 36 -17 3 3 -4 10 -15 17 -15 7 -21 7 -21 0z"/>
<path d="M75 630 c-3 -5 -1 -10 4 -10 6 0 11 5 11 10 0 6 -2 10 -4 10 -3 0 -8
-4 -11 -10z"/>
<path d="M1495 626 c-13 -9 -27 -11 -42 -5 -26 10 -34 1 -37 -43 -1 -17 -10
-36 -19 -43 -25 -18 -21 -25 14 -25 17 0 28 -4 24 -10 -3 -5 -22 -10 -41 -10
-30 0 -34 3 -34 25 0 18 -5 25 -20 25 -11 0 -20 -6 -20 -14 0 -8 -10 -17 -22
-19 -19 -4 -18 -5 6 -6 21 -1 27 -5 22 -16 -4 -10 1 -15 14 -15 12 0 20 -7 20
-16 0 -14 -7 -15 -40 -10 -48 8 -99 -2 -78 -15 10 -7 10 -9 0 -9 -7 0 -10 -4
-7 -10 3 -5 15 -10 26 -10 33 0 21 -17 -18 -23 -24 -4 -40 -2 -45 6 -6 9 -10
8 -18 -3 -17 -26 -11 -29 41 -23 35 4 59 14 75 30 26 26 64 31 64 8 0 -8 5
-15 10 -15 6 0 10 4 10 9 0 6 -4 13 -10 16 -19 12 -10 35 21 50 17 9 36 14 42
12 17 -6 49 12 42 24 -4 5 5 9 19 9 14 0 26 5 26 10 0 6 -19 10 -42 11 -39 0
-41 1 -20 11 14 7 20 17 17 28 -4 14 2 17 40 17 52 0 70 12 60 42 -8 25 -51
29 -80 7z"/>
<path d="M2000 624 c0 -8 5 -12 10 -9 6 4 8 11 5 16 -9 14 -15 11 -15 -7z"/>
<path d="M3485 610 c3 -5 22 -10 41 -10 19 0 34 5 34 10 0 6 -18 10 -41 10
-24 0 -38 -4 -34 -10z"/>
<path d="M3593 608 c2 -7 12 -13 22 -13 10 0 20 6 23 13 2 7 -6 12 -23 12 -17
0 -25 -5 -22 -12z"/>
<path d="M1920 594 c0 -10 7 -14 22 -12 32 5 35 28 4 28 -17 0 -26 -5 -26 -16z"/>
<path d="M2220 595 c-12 -15 -11 -16 16 -13 16 1 28 8 27 13 -3 17 -29 17 -43
0z"/>
<path d="M1732 593 c-21 -8 -3 -23 29 -23 17 0 37 7 45 15 14 13 11 15 -23 14
-21 0 -44 -3 -51 -6z"/>
<path d="M3798 593 c7 -3 16 -2 19 1 4 3 -2 6 -13 5 -11 0 -14 -3 -6 -6z"/>
<path d="M2740 580 c0 -5 5 -10 11 -10 5 0 7 5 4 10 -3 6 -8 10 -11 10 -2 0
-4 -4 -4 -10z"/>
<path d="M1280 555 c0 -8 7 -15 15 -15 8 0 15 4 15 9 0 5 -7 11 -15 15 -9 3
-15 0 -15 -9z"/>
<path d="M2063 553 c-22 -8 -14 -21 8 -16 12 3 25 0 29 -7 4 -7 13 -9 20 -5 8
5 3 12 -15 21 -15 8 -28 14 -29 13 0 0 -7 -3 -13 -6z"/>
<path d="M2210 550 c0 -5 9 -10 20 -10 11 0 20 5 20 10 0 6 -9 10 -20 10 -11
0 -20 -4 -20 -10z"/>
<path d="M2685 540 c3 -5 10 -10 16 -10 5 0 9 5 9 10 0 6 -7 10 -16 10 -8 0
-12 -4 -9 -10z"/>
<path d="M3820 531 c0 -6 5 -13 10 -16 6 -3 10 1 10 9 0 9 -4 16 -10 16 -5 0
-10 -4 -10 -9z"/>
<path d="M2286 521 c-3 -5 1 -12 10 -15 20 -8 29 -1 19 13 -8 13 -22 14 -29 2z"/>
<path d="M3962 504 c-1 -15 2 -23 8 -19 6 4 8 11 5 16 -4 5 -1 9 5 9 6 0 8 5
5 10 -11 17 -21 11 -23 -16z"/>
<path d="M3921 486 c-1 -26 2 -37 9 -30 6 6 6 21 1 39 -9 30 -9 30 -10 -9z"/>
<path d="M300 500 c0 -5 9 -10 21 -10 11 0 17 5 14 10 -3 6 -13 10 -21 10 -8
0 -14 -4 -14 -10z"/>
<path d="M797 489 c4 -13 8 -18 11 -10 2 7 -1 18 -6 23 -8 8 -9 4 -5 -13z"/>
<path d="M2724 495 c-18 -14 -18 -14 9 -15 17 0 27 5 27 15 0 19 -11 19 -36 0z"/>
<path d="M3862 483 c2 -10 10 -18 18 -18 22 0 18 29 -3 33 -14 3 -18 -1 -15
-15z"/>
<path d="M4025 490 c-3 -5 3 -10 15 -10 12 0 18 5 15 10 -3 6 -10 10 -15 10
-5 0 -12 -4 -15 -10z"/>
<path d="M528 483 c7 -3 16 -2 19 1 4 3 -2 6 -13 5 -11 0 -14 -3 -6 -6z"/>
<path d="M2348 483 c7 -3 16 -2 19 1 4 3 -2 6 -13 5 -11 0 -14 -3 -6 -6z"/>
<path d="M4077 459 c7 -7 15 -10 18 -7 3 3 -2 9 -12 12 -14 6 -15 5 -6 -5z"/>
<path d="M4123 463 c9 -2 23 -2 30 0 6 3 -1 5 -18 5 -16 0 -22 -2 -12 -5z"/>
<path d="M2529 448 l-26 -11 22 -23 c24 -25 42 -33 28 -11 -12 19 -10 31 7 44
18 15 5 15 -31 1z"/>
<path d="M2866 435 c-3 -9 -2 -24 3 -32 7 -14 10 -13 16 6 8 27 -9 51 -19 26z"/>
<path d="M2921 434 c0 -11 3 -14 6 -6 3 7 2 16 -1 19 -3 4 -6 -2 -5 -13z"/>
<path d="M626 432 c-10 -9 5 -22 24 -22 29 0 33 17 5 22 -13 3 -27 3 -29 0z"/>
<path d="M400 405 c0 -8 9 -15 20 -15 24 0 27 15 4 24 -22 9 -24 8 -24 -9z"/>
<path d="M2333 404 c-4 -11 -8 -12 -13 -4 -4 7 -13 9 -20 5 -18 -11 39 -58 59
-49 9 3 22 7 29 7 18 1 15 17 -4 17 -9 0 -18 9 -21 20 -6 24 -21 26 -30 4z"/>
<path d="M3585 410 c3 -5 8 -10 11 -10 2 0 4 5 4 10 0 6 -5 10 -11 10 -5 0 -7
-4 -4 -10z"/>
<path d="M3754 396 c-7 -31 1 -46 27 -46 10 0 19 -7 19 -15 0 -11 11 -15 36
-15 19 0 44 -5 56 -11 26 -14 37 -3 13 15 -17 12 -21 25 -24 85 -1 10 -4 11
-15 2 -10 -8 -16 -9 -21 -1 -4 6 -14 2 -26 -12 l-19 -23 -20 23 -19 23 -7 -25z"/>
<path d="M3940 410 c0 -5 7 -10 16 -10 8 0 12 5 9 10 -3 6 -10 10 -16 10 -5 0
-9 -4 -9 -10z"/>
<path d="M515 379 l7 -32 -36 7 c-32 6 -37 4 -45 -16 -23 -63 51 -87 96 -31
18 22 23 24 23 11 0 -22 25 -23 64 -3 21 11 31 12 36 4 4 -6 9 0 12 15 6 33 3
36 -42 36 -24 0 -43 7 -55 20 -10 11 -29 20 -42 20 -22 0 -24 -3 -18 -31z
m125 -39 c0 -5 -4 -10 -9 -10 -6 0 -13 5 -16 10 -3 6 1 10 9 10 9 0 16 -4 16
-10z"/>
<path d="M3177 403 c-14 -13 -6 -24 15 -21 27 4 36 28 11 28 -11 0 -23 -3 -26
-7z"/>
<path d="M3612 383 c2 -10 10 -18 18 -18 22 0 18 29 -3 33 -14 3 -18 -1 -15
-15z"/>
<path d="M4122 387 c-14 -16 -3 -32 26 -40 19 -4 22 -2 17 14 -4 11 -2 19 5
19 6 0 8 5 5 10 -9 14 -41 12 -53 -3z"/>
<path d="M4025 380 c-3 -5 3 -10 14 -10 12 0 21 5 21 10 0 6 -6 10 -14 10 -8
0 -18 -4 -21 -10z"/>
<path d="M2930 334 c0 -27 4 -43 10 -39 6 3 10 24 10 46 0 21 -4 39 -10 39 -5
0 -10 -21 -10 -46z"/>
<path d="M3940 370 c0 -5 5 -10 10 -10 6 0 10 5 10 10 0 6 -4 10 -10 10 -5 0
-10 -4 -10 -10z"/>
<path d="M218 343 c7 -3 16 -2 19 1 4 3 -2 6 -13 5 -11 0 -14 -3 -6 -6z"/>
<path d="M340 335 c0 -8 5 -15 10 -15 6 0 10 7 10 15 0 8 -4 15 -10 15 -5 0
-10 -7 -10 -15z"/>
<path d="M770 311 c0 -11 4 -21 9 -21 18 0 21 18 6 30 -13 10 -15 9 -15 -9z"/>
<path d="M2287 323 c-12 -11 -8 -23 9 -23 8 0 24 -5 35 -11 16 -8 18 -13 9
-25 -7 -7 -9 -22 -5 -31 6 -16 8 -14 21 9 18 35 47 50 79 42 14 -3 42 1 65 10
22 9 52 16 65 16 14 0 25 4 25 8 0 14 -183 1 -198 -14 -19 -19 -34 -17 -60 6
-22 21 -34 24 -45 13z"/>
<path d="M4172 314 c1 -9 9 -19 16 -22 9 -3 13 2 10 14 -1 9 -9 19 -16 22 -9
3 -13 -2 -10 -14z"/>
<path d="M314 285 c-7 -30 2 -59 16 -50 8 5 7 11 -1 21 -8 10 -8 14 0 14 14 0
15 27 1 35 -5 3 -12 -6 -16 -20z"/>
<path d="M4564 299 c-3 -6 -20 -9 -37 -6 -26 3 -28 2 -13 -8 13 -10 14 -14 4
-18 -9 -4 -8 -6 4 -6 9 -1 18 3 20 8 2 5 17 12 34 15 24 5 33 3 38 -9 10 -27
-2 -35 -51 -35 -26 0 -43 -3 -39 -7 8 -8 13 -9 42 -12 10 -1 14 -7 10 -16 -3
-8 -1 -15 5 -15 6 0 8 -4 4 -9 -3 -5 -1 -12 5 -16 15 -10 50 4 50 20 0 8 -6
12 -14 9 -8 -3 -17 0 -21 6 -4 7 5 16 23 22 42 16 40 58 -3 75 -39 15 -52 15
-61 2z"/>
<path d="M137 294 c-8 -8 1 -24 14 -24 5 0 9 7 9 15 0 15 -12 20 -23 9z"/>
<path d="M2740 290 c0 -5 5 -10 10 -10 6 0 10 5 10 10 0 6 -4 10 -10 10 -5 0
-10 -4 -10 -10z"/>
<path d="M2462 273 c-18 -4 -21 -7 -12 -18 16 -19 4 -35 -24 -35 -25 0 -81
-39 -58 -40 7 0 12 -8 10 -17 -3 -16 4 -18 47 -15 28 2 51 7 53 12 2 5 12 4
23 -3 15 -9 23 -9 39 1 11 7 20 9 20 5 1 -5 10 -19 21 -32 l20 -24 17 24 c9
13 19 37 23 54 5 30 5 30 -35 26 -23 -2 -44 -8 -48 -14 -11 -19 -48 23 -48 55
0 28 -3 29 -48 21z m1 -100 c-7 -2 -19 -2 -25 0 -7 3 -2 5 12 5 14 0 19 -2 13
-5z"/>
<path d="M3015 253 c16 -40 17 -55 2 -66 -27 -21 -25 -59 3 -74 14 -7 33 -13
42 -13 9 0 20 -4 23 -10 3 -5 26 -10 51 -10 24 0 44 5 44 10 0 6 -18 10 -39
10 -44 0 -54 9 -55 54 -1 24 -6 32 -23 34 -19 3 -23 10 -23 43 0 29 -4 39 -16
39 -11 0 -14 -5 -9 -17z"/>
<path d="M4450 259 c0 -5 5 -7 10 -4 6 3 10 8 10 11 0 2 -4 4 -10 4 -5 0 -10
-5 -10 -11z"/>
<path d="M4676 253 c-9 -23 8 -37 38 -29 26 6 26 6 6 26 -24 24 -36 25 -44 3z"/>
<path d="M2720 251 c0 -5 -9 -11 -21 -14 -32 -9 -17 -32 23 -35 29 -2 37 -8
42 -28 7 -25 36 -34 36 -10 0 8 7 16 15 20 8 3 15 13 15 22 0 12 -9 15 -42 14
-65 -4 -70 -2 -63 20 3 11 4 20 1 20 -3 0 -6 -4 -6 -9z"/>
<path d="M172 233 c5 -25 28 -28 28 -4 0 12 -6 21 -16 21 -9 0 -14 -7 -12 -17z"/>
<path d="M2856 240 c6 -6 19 -12 30 -14 10 -3 26 -7 34 -10 18 -7 48 10 37 20
-4 4 -31 9 -59 11 -35 2 -49 0 -42 -7z"/>
<path d="M4145 230 c-3 -5 -1 -10 4 -10 6 0 11 5 11 10 0 6 -2 10 -4 10 -3 0
-8 -4 -11 -10z"/>
<path d="M400 219 c0 -5 5 -7 10 -4 6 3 10 8 10 11 0 2 -4 4 -10 4 -5 0 -10
-5 -10 -11z"/>
<path d="M530 223 c-65 -8 -57 -23 13 -23 38 0 67 4 67 10 0 6 -4 10 -9 10 -5
0 -15 2 -23 3 -7 2 -29 2 -48 0z"/>
<path d="M4430 215 c0 -8 5 -15 10 -15 6 0 10 7 10 15 0 8 -4 15 -10 15 -5 0
-10 -7 -10 -15z"/>
<path d="M3147 213 c-4 -3 -7 -19 -7 -34 0 -29 21 -44 38 -27 8 8 18 6 36 -5
20 -13 26 -14 35 -3 9 11 29 14 63 7 4 0 12 -17 19 -36 17 -47 39 -46 35 2 -1
20 -8 39 -14 41 -18 6 -14 32 4 32 8 0 12 5 9 10 -4 7 -11 7 -18 2 -7 -5 -33
-12 -59 -14 -39 -5 -47 -3 -51 13 -4 15 -14 19 -44 19 -22 0 -43 -3 -46 -7z
m73 -27 c0 -3 -4 -8 -10 -11 -5 -3 -10 -1 -10 4 0 6 5 11 10 11 6 0 10 -2 10
-4z"/>
<path d="M375 201 c-3 -6 0 -11 8 -11 7 0 19 -11 25 -25 15 -32 28 -32 34 -1
4 18 1 23 -9 19 -8 -3 -22 2 -32 11 -13 12 -21 14 -26 7z"/>
<path d="M18 193 c7 -3 16 -2 19 1 4 3 -2 6 -13 5 -11 0 -14 -3 -6 -6z"/>
<path d="M2918 193 c7 -3 16 -2 19 1 4 3 -2 6 -13 5 -11 0 -14 -3 -6 -6z"/>
<path d="M195 180 c3 -5 8 -10 11 -10 2 0 4 5 4 10 0 6 -5 10 -11 10 -5 0 -7
-4 -4 -10z"/>
<path d="M2865 140 c-3 -5 -1 -10 4 -10 6 0 11 5 11 10 0 6 -2 10 -4 10 -3 0
-8 -4 -11 -10z"/>
<path d="M4665 140 c3 -5 10 -10 16 -10 5 0 9 5 9 10 0 6 -7 10 -16 10 -8 0
-12 -4 -9 -10z"/>
<path d="M4578 133 c6 -2 18 -2 25 0 6 3 1 5 -13 5 -14 0 -19 -2 -12 -5z"/>
<path d="M280 102 c0 -5 7 -13 16 -16 25 -9 64 -7 64 4 0 6 -8 10 -17 10 -10
0 -28 3 -40 6 -13 4 -23 2 -23 -4z"/>
<path d="M2517 89 c-6 -23 18 -38 35 -21 8 8 8 15 -2 27 -17 20 -27 19 -33 -6z"/>
<path d="M2752 98 c-13 -13 -16 -38 -4 -38 4 0 12 11 19 25 12 27 5 33 -15 13z"/>
<path d="M2900 100 c0 -5 7 -10 15 -10 8 0 15 5 15 10 0 6 -7 10 -15 10 -8 0
-15 -4 -15 -10z"/>
<path d="M4620 106 c0 -9 30 -14 35 -6 4 6 -3 10 -14 10 -12 0 -21 -2 -21 -4z"/>
<path d="M3000 90 c0 -5 9 -10 19 -10 11 0 21 -6 24 -12 2 -7 8 -10 12 -6 10
9 -19 38 -39 38 -9 0 -16 -4 -16 -10z"/>
<path d="M175 79 c-4 -6 -5 -13 -2 -16 7 -7 27 6 27 18 0 12 -17 12 -25 -2z"/>
<path d="M2447 84 c-9 -10 2 -24 19 -24 8 0 14 7 14 15 0 15 -21 21 -33 9z"/>
<path d="M2636 77 c3 -10 9 -15 12 -12 3 3 0 11 -7 18 -10 9 -11 8 -5 -6z"/>
<path d="M4720 56 c0 -2 9 -6 20 -9 11 -3 20 -1 20 4 0 5 -9 9 -20 9 -11 0
-20 -2 -20 -4z"/>
</g>
</svg>
