<?xml version="1.0" standalone="no"?>
<!DOCTYPE svg PUBLIC "-//W3C//DTD SVG 20010904//EN"
 "http://www.w3.org/TR/2001/REC-SVG-20010904/DTD/svg10.dtd">
<svg version="1.0" xmlns="http://www.w3.org/2000/svg"
 width="64.000000pt" height="64.000000pt" viewBox="0 0 64.000000 64.000000"
 preserveAspectRatio="xMidYMid meet">
<metadata>
Created by potrace 1.16, written by Peter Selinger 2001-2019
</metadata>
<g transform="translate(0.000000,64.000000) scale(0.100000,-0.100000)"
fill="#000000" stroke="none">
<path d="M261 611 c-15 -27 -14 -31 9 -31 11 0 20 -2 20 -5 0 -3 -41 -66 -90
-141 -50 -74 -94 -141 -97 -149 -4 -13 11 -15 91 -15 79 0 96 -3 96 -15 0 -22
-192 -22 -210 1 -8 9 -25 14 -44 12 -26 -2 -32 -8 -34 -31 -2 -16 4 -39 12
-52 9 -13 16 -44 16 -69 0 -33 6 -52 24 -73 l24 -28 214 -3 c117 -2 228 0 246
3 41 8 72 54 72 110 0 22 7 49 15 59 19 26 19 75 0 82 -11 5 -15 22 -15 64 l0
58 -50 -21 c-27 -11 -50 -26 -50 -32 0 -7 18 -20 40 -30 22 -10 40 -21 40 -24
0 -4 -13 -14 -29 -24 -22 -13 -52 -17 -120 -17 -54 0 -91 4 -91 10 0 6 28 10
64 10 36 0 68 5 71 10 4 6 -25 62 -64 126 -52 84 -71 124 -71 149 0 25 4 35
16 35 10 0 14 7 12 23 -3 19 -10 22 -55 25 -43 3 -54 0 -62 -17z m39 -201 l0
-120 -86 0 -86 0 17 28 c40 62 146 212 150 212 3 0 5 -54 5 -120z m103 -240
l187 0 0 -35 c0 -47 -23 -91 -52 -99 -13 -3 -117 -6 -231 -6 -207 0 -208 0
-232 25 -19 18 -25 35 -25 69 l0 45 63 4 c34 2 71 2 82 0 11 -1 104 -3 208 -3z"/>
</g>
</svg>
